<?xml version="1.0" encoding="utf-8"?>
<!-- Generator: Adobe Illustrator 16.0.0, SVG Export Plug-In . SVG Version: 6.00 Build 0)  -->
<!DOCTYPE svg PUBLIC "-//W3C//DTD SVG 1.1//EN" "http://www.w3.org/Graphics/SVG/1.1/DTD/svg11.dtd">
<svg version="1.1" id="圖層_1" xmlns="http://www.w3.org/2000/svg" xmlns:xlink="http://www.w3.org/1999/xlink" x="0px" y="0px"
	 width="454px" height="85px" viewBox="0 0 454 85" enable-background="new 0 0 454 85" xml:space="preserve">
<g>
	<g>
		<path fill="#2D2D2D" d="M107.125,39.281c-1.278,3.97-3.134,8.123-5.567,12.461l-2.784-2.157c2.028-3.527,3.791-7.514,5.291-11.963
			L107.125,39.281z M107.033,32.645l-2.212,2.599c-2.348-2.224-4.326-3.858-5.936-4.903l2.304-2.691
			C103.192,29.038,105.141,30.703,107.033,32.645z M107.273,23.391l-2.341,2.636c-1.819-2.101-3.656-3.889-5.512-5.364l2.452-2.489
			C103.948,19.883,105.749,21.622,107.273,23.391z M132.177,48.793l-1.696,2.875c-5.665-1.389-9.223-4.196-10.673-8.424
			c-1.192,3.797-5.021,6.556-11.484,8.276l-1.659-3.134c3.994-0.725,6.94-2.07,8.839-4.037c1.898-1.966,2.78-5.518,2.645-10.655
			h3.318c-0.086,3.601,0.153,6.102,0.719,7.502c1.917-1.327,3.674-2.986,5.272-4.977l2.691,2.083
			c-1.745,2.126-3.883,4.049-6.415,5.77C125.27,46.04,128.084,47.613,132.177,48.793z M131.808,32.682l-2.083,2.562
			c-2.507-2.113-5.869-4.301-10.083-6.562c-2.2,3.06-5.444,5.248-9.733,6.562l-1.917-2.912c2.667-0.627,4.922-1.613,6.765-2.959
			c1.843-1.345,2.916-3.216,3.217-5.613c0.301-2.396,0.42-4.166,0.359-5.309h3.392c-0.037,2.249-0.289,4.461-0.756,6.636
			c2.421-1.438,4.584-3.287,6.489-5.548l2.691,1.991c-1.34,1.757-3.515,3.662-6.525,5.714
			C126.88,29.087,129.608,30.9,131.808,32.682z M115.568,41.511l-2.709,1.991c-1.155-1.831-2.569-3.68-4.24-5.548l2.728-1.917
			C112.821,37.548,114.229,39.373,115.568,41.511z M115.844,25.548l-2.765,1.843c-0.824-1.61-2.145-3.576-3.963-5.898l2.913-1.807
			C113.712,21.8,114.984,23.754,115.844,25.548z"/>
		<path fill="#2D2D2D" d="M151.24,38.986c-1.205,3.638-3.14,7.761-5.807,12.369l-3.023-1.732c2.667-4.621,4.608-8.787,5.825-12.498
			L151.24,38.986z M151.24,32.368l-2.175,2.765c-1.72-1.72-3.926-3.306-6.617-4.756l2.009-2.802
			C147.062,28.928,149.323,30.525,151.24,32.368z M151.922,23.649l-2.452,2.655c-1.671-1.843-3.834-3.668-6.489-5.475l2.341-2.765
			C147.769,19.649,149.968,21.511,151.922,23.649z M175.37,50.378h-24.277v-3.355h10.305V22.562h-9.235v-3.318h22.231v3.318h-9.438
			v24.461h10.415V50.378z"/>
		<path fill="#2D2D2D" d="M218.933,48.94l-2.028,2.728c-7.459-4.756-12.308-11.084-14.544-18.986
			c-2.348,7.595-7.251,13.832-14.71,18.71l-2.009-2.931c7.706-5.026,12.4-11.183,14.083-18.471h-13.291l-0.037-3.392h13.77
			c0.27-2.642,0.424-5.333,0.461-8.074h3.392c-0.037,3.281-0.147,5.973-0.332,8.074h14.765v3.392h-13.678
			C206.619,38.101,211.338,44.418,218.933,48.94z"/>
		<path fill="#2D2D2D" d="M262.126,45.696h-14.489v2.341c0,0.848-0.193,1.518-0.58,2.009c-0.388,0.491-0.879,0.826-1.475,1.005
			c-0.597,0.178-1.718,0.268-3.364,0.268c-0.763,0-1.629-0.025-2.6-0.074l-1.087-3.061c0.859,0.025,2.519,0.037,4.977,0.037
			c0.454,0,0.682-0.209,0.682-0.626v-1.898H229.24v-2.673h14.949v-1.622c1.868-0.381,3.607-0.873,5.217-1.475h-14.009v-2.415h20.092
			v2.415c-2.052,0.971-4.67,1.93-7.853,2.876v0.221h14.489V45.696z M261.555,40.147h-3.171v-4.295H233.13v4.258h-3.355v-6.913h2.341
			l-0.682-13.549c2.445-0.11,4.897-0.59,7.355-1.438l1.548,2.617c-1.757,0.553-3.619,0.94-5.585,1.162l0.11,2.009h4.922v2.452
			h-4.793l0.074,2.138h4.719v2.433h-4.571l0.11,2.175h20.793l0.074-2.175h-5.088v-2.433h5.217l0.11-2.138h-5.327V24h5.401
			l0.11-2.009h-5.77v-2.636h9.051l-0.608,13.844h2.268V40.147z M250.089,19.317c-0.59,0.787-1.407,1.567-2.452,2.341
			c0.614,0.541,1.18,1.094,1.696,1.659l-2.01,1.77c-0.626-0.75-1.253-1.376-1.88-1.88c-1.303,0.774-2.574,1.414-3.815,1.917
			l-1.586-2.12c1.094-0.381,2.163-0.885,3.208-1.511c-0.345-0.32-1.039-0.836-2.083-1.549l1.824-1.843l2.526,1.807
			c0.822-0.602,1.475-1.192,1.953-1.77L250.089,19.317z M250.273,31.207l-2.01,1.732c-0.946-1.044-1.801-1.849-2.563-2.415
			c-1.314,0.836-2.599,1.542-3.853,2.12l-1.548-2.083c0.909-0.393,1.99-0.97,3.244-1.732c-0.64-0.565-1.469-1.13-2.488-1.696
			l1.824-1.862c0.664,0.393,1.641,1.063,2.932,2.009c1.032-0.873,1.738-1.542,2.119-2.009l2.305,1.364
			c-0.726,0.799-1.506,1.542-2.341,2.23C248.743,29.603,249.535,30.384,250.273,31.207z"/>
	</g>
	<g>
		<path fill="#2D2D2D" d="M326.031,54.107h-44.709v-4.626h19.979V17.7h-17.778v-4.776h40.458V17.7h-17.778v31.782h19.829V54.107z"/>
		<path fill="#2D2D2D" d="M384.874,48.156H365.22v3.176c0,1.15-0.263,2.059-0.788,2.726c-0.524,0.666-1.191,1.121-2,1.362
			c-0.809,0.242-2.33,0.363-4.563,0.363c-1.034,0-2.209-0.034-3.525-0.101l-1.476-4.15c1.167,0.033,3.417,0.05,6.751,0.05
			c0.617,0,0.926-0.283,0.926-0.851v-2.575h-20.279V44.53h20.279v-2.2c2.533-0.517,4.893-1.184,7.076-2h-19.004v-3.276h27.256v3.276
			c-2.784,1.317-6.335,2.617-10.652,3.901v0.3h19.654V48.156z M384.099,40.629h-4.301v-5.826h-34.257v5.776h-4.552v-9.377h3.176
			l-0.925-18.379c3.317-0.15,6.643-0.8,9.977-1.95l2.101,3.551c-2.384,0.75-4.909,1.275-7.576,1.575l0.15,2.726h6.676v3.326h-6.501
			l0.1,2.9h6.401v3.301h-6.201l0.15,2.951h28.205l0.101-2.951h-6.901v-3.301h7.076l0.15-2.9h-7.227v-3.326h7.326l0.15-2.726h-7.827
			v-3.576h12.278l-0.825,18.779h3.075V40.629z M368.546,12.374c-0.801,1.067-1.909,2.125-3.326,3.176
			c0.833,0.734,1.601,1.484,2.301,2.25l-2.726,2.4c-0.851-1.017-1.7-1.867-2.551-2.55c-1.768,1.05-3.492,1.917-5.176,2.601
			l-2.15-2.875c1.483-0.517,2.934-1.201,4.351-2.051c-0.467-0.433-1.409-1.133-2.825-2.1l2.475-2.5l3.426,2.45
			c1.117-0.816,2.001-1.617,2.651-2.4L368.546,12.374z M368.796,28.502l-2.726,2.351c-1.284-1.417-2.442-2.509-3.477-3.276
			c-1.783,1.134-3.525,2.092-5.226,2.876l-2.101-2.826c1.233-0.533,2.7-1.317,4.401-2.351c-0.867-0.767-1.992-1.534-3.376-2.3
			l2.476-2.526c0.9,0.534,2.226,1.442,3.976,2.726c1.4-1.183,2.358-2.092,2.876-2.726l3.125,1.851
			c-0.983,1.084-2.042,2.092-3.175,3.026C366.72,26.327,367.795,27.385,368.796,28.502z"/>
		<path fill="#2D2D2D" d="M411.033,27.002c2.734,4.034,4.102,7.718,4.102,11.052c0,2.184-0.459,3.884-1.376,5.101
			s-2.767,1.825-5.551,1.825c-0.434,0-0.875-0.017-1.325-0.05l-1.275-4.351c0.566,0.083,1.125,0.125,1.676,0.125
			c1.566,0,2.525-0.2,2.875-0.6c0.351-0.4,0.525-0.925,0.525-1.575c0-3.584-1.467-7.202-4.401-10.853
			c1.551-3.917,2.792-7.776,3.727-11.577h-4.951v39.583h-4.451V11.749h13.978v4.151C413.518,19.817,412.334,23.518,411.033,27.002z
			 M444.016,45.756c0,4.001-0.496,6.626-1.488,7.876c-0.991,1.251-2.938,1.876-5.838,1.876c-2.118,0-3.585-0.321-4.401-0.963
			c-0.817-0.642-1.226-1.763-1.226-3.363V37.504h-4.351c0,9.036-4.168,15.253-12.503,18.654l-2.8-3.751
			c7.234-2.734,10.852-7.118,10.852-13.153c0-0.566-0.033-1.15-0.1-1.75h-5.901v-4.251h27.006v4.251h-7.652v12.703
			c0,0.583,0.309,0.875,0.926,0.875c1.4,0,2.263-0.254,2.588-0.763s0.487-2.455,0.487-5.839L444.016,45.756z M442.84,26.552h-4.4
			V20.25h-17.679v6.301h-4.401V15.85h10.553c-0.184-0.917-0.817-2.351-1.9-4.301l4.676-0.725c0.75,1.317,1.434,2.993,2.051,5.026
			h11.102V26.552z M436.964,28.802h-14.653v-4.351h14.653V28.802z"/>
	</g>
	<g>
		<path fill="#2D2D2D" d="M108.794,73.154c-0.903,0.457-2.041,0.686-3.412,0.686c-1.765,0-3.179-0.556-4.243-1.667
			c-1.063-1.11-1.595-2.577-1.595-4.4c0-1.901,0.589-3.468,1.769-4.699c1.179-1.232,2.699-1.849,4.558-1.849
			c1.171,0,2.146,0.163,2.923,0.489v1.914c-0.861-0.482-1.815-0.725-2.86-0.725c-1.329,0-2.396,0.438-3.199,1.312
			c-0.804,0.875-1.206,2.019-1.206,3.432c0,1.351,0.377,2.442,1.131,3.278c0.753,0.835,1.764,1.252,3.029,1.252
			c1.177,0,2.211-0.271,3.104-0.812V73.154z"/>
		<path fill="#2D2D2D" d="M110.532,69.356c0-1.434,0.408-2.566,1.225-3.396c0.817-0.83,1.929-1.245,3.337-1.245
			c1.329,0,2.379,0.401,3.152,1.205c0.772,0.804,1.158,1.901,1.158,3.294c0,1.402-0.407,2.523-1.221,3.364
			c-0.814,0.841-1.902,1.261-3.262,1.261c-1.334,0-2.399-0.407-3.195-1.222C110.93,71.805,110.532,70.717,110.532,69.356z
			 M112.415,69.317c0,0.956,0.232,1.701,0.697,2.237s1.096,0.804,1.895,0.804c1.675,0,2.513-1.032,2.513-3.097
			c0-0.998-0.215-1.758-0.646-2.281c-0.431-0.522-1.053-0.783-1.867-0.783c-0.814,0-1.45,0.278-1.907,0.835
			C112.644,67.589,112.415,68.351,112.415,69.317z"/>
		<path fill="#2D2D2D" d="M121.605,73.635V60.736h1.852v12.898H121.605z"/>
		<path fill="#2D2D2D" d="M126.21,73.635V60.736h1.852v12.898H126.21z"/>
		<path fill="#2D2D2D" d="M138.128,69.774h-5.988c0.079,1.76,0.975,2.639,2.687,2.639c0.966,0,1.846-0.288,2.64-0.866v1.528
			c-0.778,0.51-1.799,0.765-3.065,0.765c-1.292,0-2.303-0.395-3.033-1.182c-0.73-0.788-1.095-1.892-1.095-3.31
			c0-1.345,0.393-2.453,1.178-3.325s1.769-1.308,2.951-1.308c1.177,0,2.092,0.371,2.746,1.114c0.654,0.744,0.981,1.767,0.981,3.069
			V69.774z M136.332,68.427c-0.005-0.746-0.176-1.318-0.512-1.718c-0.336-0.399-0.814-0.599-1.434-0.599
			c-0.562,0-1.05,0.211-1.465,0.634s-0.672,0.984-0.772,1.683H136.332z"/>
		<path fill="#2D2D2D" d="M148.051,72.831c0,3.268-1.633,4.9-4.901,4.9c-1.108,0-2.048-0.188-2.82-0.566v-1.702
			c0.956,0.535,1.883,0.804,2.781,0.804c2.059,0,3.088-1.054,3.088-3.16V72.24h-0.031c-0.641,1.066-1.605,1.6-2.892,1.6
			c-1.093,0-1.969-0.391-2.628-1.17c-0.659-0.78-0.989-1.821-0.989-3.124c0-1.471,0.361-2.644,1.083-3.519
			c0.722-0.874,1.685-1.312,2.888-1.312c1.14,0,1.985,0.449,2.537,1.347h0.031v-1.142h1.852V72.831z M146.216,68.529
			c0-0.646-0.213-1.196-0.639-1.651c-0.425-0.454-0.951-0.681-1.576-0.681c-0.762,0-1.362,0.287-1.8,0.862s-0.658,1.372-0.658,2.392
			c0,0.882,0.21,1.588,0.63,2.115c0.42,0.528,0.974,0.792,1.662,0.792c0.699,0,1.27-0.26,1.714-0.78
			c0.444-0.52,0.666-1.177,0.666-1.97V68.529z"/>
		<path fill="#2D2D2D" d="M158.117,69.774h-5.988c0.079,1.76,0.975,2.639,2.687,2.639c0.966,0,1.846-0.288,2.64-0.866v1.528
			c-0.778,0.51-1.799,0.765-3.065,0.765c-1.292,0-2.303-0.395-3.033-1.182c-0.73-0.788-1.095-1.892-1.095-3.31
			c0-1.345,0.393-2.453,1.178-3.325s1.769-1.308,2.951-1.308c1.177,0,2.092,0.371,2.746,1.114c0.654,0.744,0.981,1.767,0.981,3.069
			V69.774z M156.321,68.427c-0.005-0.746-0.176-1.318-0.512-1.718c-0.336-0.399-0.814-0.599-1.434-0.599
			c-0.562,0-1.05,0.211-1.465,0.634s-0.672,0.984-0.772,1.683H156.321z"/>
		<path fill="#2D2D2D" d="M163.845,69.356c0-1.434,0.408-2.566,1.225-3.396c0.817-0.83,1.929-1.245,3.337-1.245
			c1.329,0,2.379,0.401,3.152,1.205c0.772,0.804,1.158,1.901,1.158,3.294c0,1.402-0.407,2.523-1.221,3.364
			c-0.814,0.841-1.902,1.261-3.262,1.261c-1.334,0-2.399-0.407-3.195-1.222C164.243,71.805,163.845,70.717,163.845,69.356z
			 M165.728,69.317c0,0.956,0.232,1.701,0.697,2.237s1.096,0.804,1.895,0.804c1.675,0,2.513-1.032,2.513-3.097
			c0-0.998-0.215-1.758-0.646-2.281c-0.431-0.522-1.053-0.783-1.867-0.783c-0.814,0-1.45,0.278-1.907,0.835
			C165.957,67.589,165.728,68.351,165.728,69.317z"/>
		<path fill="#2D2D2D" d="M179.418,62.249c-0.31-0.146-0.628-0.221-0.954-0.221c-0.935,0-1.402,0.565-1.402,1.694v1.198h2.017v1.465
			h-2.017v7.249h-1.844v-7.249h-1.481v-1.465h1.481v-1.293c0-0.95,0.286-1.703,0.859-2.257c0.572-0.555,1.305-0.831,2.198-0.831
			c0.462,0,0.843,0.052,1.143,0.157V62.249z"/>
		<path fill="#2D2D2D" d="M191.843,73.635h-6.761V61.43h6.485v1.623h-4.594v3.593h4.263v1.615h-4.263v3.751h4.87V73.635z"/>
		<path fill="#2D2D2D" d="M201.656,73.635h-1.844V68.71c0-1.675-0.609-2.513-1.828-2.513c-0.615,0-1.123,0.232-1.525,0.697
			s-0.603,1.054-0.603,1.769v4.972h-1.852v-8.714h1.852v1.426h0.039c0.646-1.088,1.592-1.631,2.837-1.631
			c1.949,0,2.923,1.197,2.923,3.593V73.635z"/>
		<path fill="#2D2D2D" d="M212.1,72.831c0,3.268-1.633,4.9-4.901,4.9c-1.108,0-2.048-0.188-2.82-0.566v-1.702
			c0.956,0.535,1.883,0.804,2.781,0.804c2.059,0,3.088-1.054,3.088-3.16V72.24h-0.031c-0.641,1.066-1.605,1.6-2.892,1.6
			c-1.093,0-1.969-0.391-2.628-1.17c-0.659-0.78-0.989-1.821-0.989-3.124c0-1.471,0.361-2.644,1.083-3.519
			c0.722-0.874,1.685-1.312,2.888-1.312c1.14,0,1.985,0.449,2.537,1.347h0.031v-1.142h1.852V72.831z M210.264,68.529
			c0-0.646-0.213-1.196-0.639-1.651c-0.425-0.454-0.951-0.681-1.576-0.681c-0.762,0-1.362,0.287-1.8,0.862s-0.658,1.372-0.658,2.392
			c0,0.882,0.21,1.588,0.63,2.115c0.42,0.528,0.974,0.792,1.662,0.792c0.699,0,1.27-0.26,1.714-0.78
			c0.444-0.52,0.666-1.177,0.666-1.97V68.529z"/>
		<path fill="#2D2D2D" d="M214.672,61.927c0-0.311,0.106-0.566,0.319-0.769c0.212-0.202,0.482-0.304,0.808-0.304
			c0.32,0,0.591,0.102,0.812,0.304s0.331,0.458,0.331,0.769c0,0.31-0.11,0.565-0.331,0.768s-0.491,0.304-0.812,0.304
			c-0.321,0-0.588-0.103-0.804-0.308S214.672,62.231,214.672,61.927z M214.854,73.635v-8.714h1.852v8.714H214.854z"/>
		<path fill="#2D2D2D" d="M227.125,73.635h-1.844V68.71c0-1.675-0.609-2.513-1.828-2.513c-0.615,0-1.123,0.232-1.525,0.697
			s-0.603,1.054-0.603,1.769v4.972h-1.852v-8.714h1.852v1.426h0.039c0.646-1.088,1.592-1.631,2.837-1.631
			c1.949,0,2.923,1.197,2.923,3.593V73.635z"/>
		<path fill="#2D2D2D" d="M237.033,69.774h-5.989c0.079,1.76,0.975,2.639,2.687,2.639c0.967,0,1.847-0.288,2.64-0.866v1.528
			c-0.777,0.51-1.8,0.765-3.065,0.765c-1.292,0-2.303-0.395-3.033-1.182c-0.73-0.788-1.095-1.892-1.095-3.31
			c0-1.345,0.393-2.453,1.178-3.325s1.769-1.308,2.951-1.308c1.177,0,2.092,0.371,2.746,1.114c0.654,0.744,0.981,1.767,0.981,3.069
			V69.774z M235.236,68.427c-0.005-0.746-0.176-1.318-0.512-1.718c-0.337-0.399-0.814-0.599-1.435-0.599
			c-0.562,0-1.05,0.211-1.465,0.634s-0.672,0.984-0.772,1.683H235.236z"/>
		<path fill="#2D2D2D" d="M246.421,69.774h-5.988c0.078,1.76,0.974,2.639,2.687,2.639c0.967,0,1.847-0.288,2.64-0.866v1.528
			c-0.777,0.51-1.8,0.765-3.065,0.765c-1.292,0-2.303-0.395-3.033-1.182c-0.73-0.788-1.096-1.892-1.096-3.31
			c0-1.345,0.394-2.453,1.179-3.325s1.769-1.308,2.95-1.308c1.177,0,2.092,0.371,2.746,1.114c0.654,0.744,0.981,1.767,0.981,3.069
			V69.774z M244.624,68.427c-0.005-0.746-0.176-1.318-0.512-1.718c-0.337-0.399-0.814-0.599-1.435-0.599
			c-0.563,0-1.051,0.211-1.466,0.634s-0.672,0.984-0.771,1.683H244.624z"/>
		<path fill="#2D2D2D" d="M253.461,66.686c-0.273-0.179-0.636-0.269-1.087-0.269c-0.599,0-1.084,0.264-1.454,0.788
			c-0.37,0.525-0.556,1.222-0.556,2.088v4.342h-1.852v-8.714h1.852v1.733h0.04c0.431-1.256,1.192-1.884,2.285-1.884
			c0.325,0,0.583,0.037,0.771,0.11V66.686z"/>
		<path fill="#2D2D2D" d="M254.844,61.927c0-0.311,0.106-0.566,0.318-0.769c0.213-0.202,0.482-0.304,0.808-0.304
			c0.32,0,0.592,0.102,0.812,0.304c0.221,0.202,0.331,0.458,0.331,0.769c0,0.31-0.11,0.565-0.331,0.768
			c-0.22,0.202-0.491,0.304-0.812,0.304s-0.588-0.103-0.804-0.308C254.951,62.485,254.844,62.231,254.844,61.927z M255.024,73.635
			v-8.714h1.852v8.714H255.024z"/>
		<path fill="#2D2D2D" d="M267.297,73.635h-1.844V68.71c0-1.675-0.609-2.513-1.828-2.513c-0.615,0-1.123,0.232-1.524,0.697
			c-0.402,0.465-0.604,1.054-0.604,1.769v4.972h-1.852v-8.714h1.852v1.426h0.04c0.646-1.088,1.591-1.631,2.836-1.631
			c1.949,0,2.924,1.197,2.924,3.593V73.635z"/>
		<path fill="#2D2D2D" d="M277.739,72.831c0,3.268-1.634,4.9-4.9,4.9c-1.108,0-2.049-0.188-2.821-0.566v-1.702
			c0.956,0.535,1.884,0.804,2.781,0.804c2.06,0,3.089-1.054,3.089-3.16V72.24h-0.031c-0.641,1.066-1.604,1.6-2.892,1.6
			c-1.093,0-1.969-0.391-2.628-1.17c-0.659-0.78-0.989-1.821-0.989-3.124c0-1.471,0.361-2.644,1.084-3.519
			c0.722-0.874,1.685-1.312,2.888-1.312c1.14,0,1.985,0.449,2.537,1.347h0.031v-1.142h1.852V72.831z M275.903,68.529
			c0-0.646-0.213-1.196-0.638-1.651c-0.426-0.454-0.951-0.681-1.576-0.681c-0.762,0-1.361,0.287-1.801,0.862
			c-0.438,0.575-0.657,1.372-0.657,2.392c0,0.882,0.21,1.588,0.63,2.115c0.421,0.528,0.975,0.792,1.663,0.792
			c0.698,0,1.27-0.26,1.714-0.78c0.443-0.52,0.665-1.177,0.665-1.97V68.529z"/>
		<path fill="#2D2D2D" d="M282.242,71.626l-1.323,4.223h-1.387l0.953-4.223H282.242z"/>
		<path fill="#2D2D2D" d="M296.882,63.053h-3.507v10.582h-1.898V63.053h-3.498V61.43h8.903V63.053z"/>
		<path fill="#2D2D2D" d="M297.012,65.504c0.888-0.525,1.915-0.788,3.081-0.788c2.201,0,3.301,1.137,3.301,3.411v5.508h-1.796
			v-1.323h-0.039c-0.594,1.019-1.477,1.528-2.647,1.528c-0.856,0-1.53-0.231-2.021-0.693s-0.736-1.085-0.736-1.867
			c0-1.64,0.974-2.596,2.923-2.868l2.529-0.347c0-1.298-0.57-1.946-1.71-1.946c-1.045,0-2.007,0.339-2.884,1.017V65.504z
			 M299.683,69.585c-0.63,0.084-1.075,0.244-1.335,0.48c-0.261,0.236-0.391,0.583-0.391,1.04c0,0.384,0.14,0.697,0.418,0.941
			s0.636,0.366,1.071,0.366c0.62,0,1.135-0.219,1.545-0.657c0.409-0.438,0.614-0.991,0.614-1.659v-0.771L299.683,69.585z"/>
		<path fill="#2D2D2D" d="M318.896,73.635h-1.852V68.64c0-0.861-0.14-1.484-0.418-1.867c-0.278-0.384-0.722-0.575-1.331-0.575
			c-0.525,0-0.978,0.241-1.355,0.725s-0.567,1.074-0.567,1.772v4.94h-1.844v-5.121c0-1.545-0.591-2.316-1.772-2.316
			c-0.547,0-1,0.233-1.359,0.701c-0.359,0.467-0.54,1.071-0.54,1.812v4.925h-1.852v-8.714h1.852v1.37h0.04
			c0.625-1.05,1.539-1.575,2.741-1.575c1.225,0,2.052,0.58,2.482,1.741c0.651-1.161,1.623-1.741,2.915-1.741
			c1.907,0,2.86,1.179,2.86,3.537V73.635z"/>
		<path fill="#2D2D2D" d="M329.269,73.635h-2.403l-3.467-4.231h-0.04v4.231h-1.852V60.736h1.852v8.187h0.04l3.285-4.002h2.301
			l-3.719,4.168L329.269,73.635z"/>
		<path fill="#2D2D2D" d="M330.919,65.504c0.888-0.525,1.915-0.788,3.081-0.788c2.201,0,3.301,1.137,3.301,3.411v5.508h-1.796
			v-1.323h-0.039c-0.594,1.019-1.477,1.528-2.647,1.528c-0.856,0-1.53-0.231-2.021-0.693s-0.736-1.085-0.736-1.867
			c0-1.64,0.974-2.596,2.923-2.868l2.529-0.347c0-1.298-0.57-1.946-1.71-1.946c-1.045,0-2.007,0.339-2.884,1.017V65.504z
			 M333.59,69.585c-0.63,0.084-1.075,0.244-1.335,0.48c-0.261,0.236-0.391,0.583-0.391,1.04c0,0.384,0.14,0.697,0.418,0.941
			s0.636,0.366,1.071,0.366c0.62,0,1.135-0.219,1.545-0.657c0.409-0.438,0.614-0.991,0.614-1.659v-0.771L333.59,69.585z"/>
		<path fill="#2D2D2D" d="M347.563,73.635h-1.844V68.71c0-1.675-0.609-2.513-1.828-2.513c-0.615,0-1.123,0.232-1.524,0.697
			c-0.402,0.465-0.604,1.054-0.604,1.769v4.972h-1.852v-8.714h1.852v1.426h0.04c0.646-1.088,1.591-1.631,2.836-1.631
			c1.949,0,2.924,1.197,2.924,3.593V73.635z"/>
		<path fill="#2D2D2D" d="M358.007,72.831c0,3.268-1.634,4.9-4.9,4.9c-1.108,0-2.049-0.188-2.821-0.566v-1.702
			c0.956,0.535,1.884,0.804,2.781,0.804c2.06,0,3.089-1.054,3.089-3.16V72.24h-0.031c-0.641,1.066-1.604,1.6-2.892,1.6
			c-1.093,0-1.969-0.391-2.628-1.17c-0.659-0.78-0.989-1.821-0.989-3.124c0-1.471,0.361-2.644,1.084-3.519
			c0.722-0.874,1.685-1.312,2.888-1.312c1.14,0,1.985,0.449,2.537,1.347h0.031v-1.142h1.852V72.831z M356.171,68.529
			c0-0.646-0.213-1.196-0.638-1.651c-0.426-0.454-0.951-0.681-1.576-0.681c-0.762,0-1.361,0.287-1.801,0.862
			c-0.438,0.575-0.657,1.372-0.657,2.392c0,0.882,0.21,1.588,0.63,2.115c0.421,0.528,0.975,0.792,1.663,0.792
			c0.698,0,1.27-0.26,1.714-0.78c0.443-0.52,0.665-1.177,0.665-1.97V68.529z"/>
		<path fill="#2D2D2D" d="M374.482,68.576c0,3.509-1.605,5.264-4.814,5.264c-3.078,0-4.617-1.697-4.617-5.09v-7.32h1.891v7.272
			c0,2.316,0.956,3.475,2.868,3.475c1.854,0,2.781-1.118,2.781-3.356V61.43h1.892V68.576z"/>
		<path fill="#2D2D2D" d="M384.981,73.635h-1.844V68.71c0-1.675-0.609-2.513-1.828-2.513c-0.615,0-1.123,0.232-1.524,0.697
			c-0.402,0.465-0.604,1.054-0.604,1.769v4.972h-1.852v-8.714h1.852v1.426h0.04c0.646-1.088,1.591-1.631,2.836-1.631
			c1.949,0,2.924,1.197,2.924,3.593V73.635z"/>
		<path fill="#2D2D2D" d="M387.396,61.927c0-0.311,0.106-0.566,0.318-0.769c0.213-0.202,0.482-0.304,0.808-0.304
			c0.32,0,0.592,0.102,0.812,0.304c0.221,0.202,0.331,0.458,0.331,0.769c0,0.31-0.11,0.565-0.331,0.768
			c-0.22,0.202-0.491,0.304-0.812,0.304s-0.588-0.103-0.804-0.308C387.504,62.485,387.396,62.231,387.396,61.927z M387.577,73.635
			v-8.714h1.852v8.714H387.577z"/>
		<path fill="#2D2D2D" d="M399.564,64.921l-3.396,8.714h-1.962l-3.23-8.714h2.009l1.962,5.995c0.168,0.516,0.271,0.959,0.308,1.332
			h0.039c0.048-0.431,0.142-0.861,0.284-1.292l2.04-6.035H399.564z"/>
		<path fill="#2D2D2D" d="M408.283,69.774h-5.988c0.078,1.76,0.974,2.639,2.687,2.639c0.967,0,1.847-0.288,2.64-0.866v1.528
			c-0.777,0.51-1.8,0.765-3.065,0.765c-1.292,0-2.303-0.395-3.033-1.182c-0.73-0.788-1.096-1.892-1.096-3.31
			c0-1.345,0.394-2.453,1.179-3.325s1.769-1.308,2.95-1.308c1.177,0,2.092,0.371,2.746,1.114c0.654,0.744,0.981,1.767,0.981,3.069
			V69.774z M406.486,68.427c-0.005-0.746-0.176-1.318-0.512-1.718c-0.337-0.399-0.814-0.599-1.435-0.599
			c-0.563,0-1.051,0.211-1.466,0.634s-0.672,0.984-0.771,1.683H406.486z"/>
		<path fill="#2D2D2D" d="M415.322,66.686c-0.273-0.179-0.636-0.269-1.087-0.269c-0.599,0-1.084,0.264-1.454,0.788
			c-0.37,0.525-0.556,1.222-0.556,2.088v4.342h-1.852v-8.714h1.852v1.733h0.04c0.431-1.256,1.192-1.884,2.285-1.884
			c0.325,0,0.583,0.037,0.771,0.11V66.686z"/>
		<path fill="#2D2D2D" d="M416.611,71.609c0.813,0.552,1.659,0.828,2.537,0.828c1.155,0,1.733-0.357,1.733-1.072
			c0-0.299-0.121-0.545-0.362-0.736c-0.242-0.191-0.786-0.445-1.631-0.761c-0.889-0.341-1.487-0.705-1.797-1.091
			s-0.465-0.871-0.465-1.454c0-0.804,0.336-1.438,1.009-1.906c0.672-0.468,1.505-0.701,2.497-0.701c0.762,0,1.474,0.126,2.136,0.378
			v1.639c-0.662-0.409-1.402-0.614-2.222-0.614c-0.468,0-0.847,0.097-1.135,0.291c-0.289,0.194-0.434,0.449-0.434,0.765
			c0,0.31,0.106,0.555,0.319,0.732c0.213,0.179,0.702,0.415,1.469,0.71c0.946,0.347,1.591,0.715,1.935,1.106
			s0.517,0.879,0.517,1.462c0,0.824-0.337,1.474-1.009,1.946c-0.673,0.473-1.555,0.709-2.647,0.709c-0.935,0-1.752-0.163-2.45-0.488
			V71.609z"/>
		<path fill="#2D2D2D" d="M424.604,61.927c0-0.311,0.106-0.566,0.318-0.769c0.213-0.202,0.482-0.304,0.808-0.304
			c0.32,0,0.592,0.102,0.812,0.304c0.221,0.202,0.331,0.458,0.331,0.769c0,0.31-0.11,0.565-0.331,0.768
			c-0.22,0.202-0.491,0.304-0.812,0.304s-0.588-0.103-0.804-0.308C424.712,62.485,424.604,62.231,424.604,61.927z M424.785,73.635
			v-8.714h1.852v8.714H424.785z"/>
		<path fill="#2D2D2D" d="M433.882,73.54c-0.342,0.194-0.832,0.292-1.474,0.292c-1.654,0-2.481-0.898-2.481-2.695v-4.751h-1.474
			v-1.465h1.474V62.88l1.844-0.56v2.601h2.111v1.465h-2.111v4.429c0,0.541,0.096,0.932,0.287,1.174
			c0.192,0.241,0.501,0.362,0.926,0.362c0.331,0,0.631-0.095,0.898-0.284V73.54z"/>
		<path fill="#2D2D2D" d="M443.199,64.921l-3.838,9.864c-0.762,1.965-1.864,2.946-3.309,2.946c-0.473,0-0.856-0.05-1.15-0.149v-1.56
			c0.305,0.136,0.619,0.204,0.945,0.204c0.693,0,1.205-0.386,1.536-1.158l0.606-1.449l-3.45-8.698h2.056l2.097,6.216
			c0.047,0.132,0.115,0.41,0.204,0.836h0.04c0.025-0.168,0.097-0.441,0.212-0.82l2.183-6.231H443.199z"/>
	</g>
	<g>
		<rect y="0" fill="none" width="85.167" height="85.167"/>
		<g>
			<g>
				<path stroke="#231815" stroke-width="0.5" stroke-miterlimit="10" d="M3.887,41.323c0.469-0.008,0.937-0.035,1.405-0.019
					c0.29,0.01,0.383-0.072,0.403-0.376c0.083-1.305,0.199-2.61,0.317-3.913c0.019-0.195-0.007-0.28-0.211-0.322
					c-0.513-0.106-1.022-0.238-1.567-0.369c0.521-3.345,1.475-6.521,2.88-9.604c0.661,0.261,1.282,0.505,1.907,0.751
					c0.639-1.215,1.271-2.423,1.927-3.672c-0.504-0.336-1.039-0.692-1.614-1.077c1.906-3.021,4.226-5.68,6.752-8.216
					c0.478,0.451,0.928,0.876,1.374,1.295c1.188-1.016,2.352-2.015,3.539-3.031c-0.306-0.464-0.621-0.943-0.97-1.471
					c2.708-2.096,5.68-3.675,8.871-4.961c0.269,0.689,0.52,1.332,0.772,1.977c1.303-0.416,2.587-0.828,3.911-1.253
					c-0.124-0.599-0.254-1.228-0.396-1.91c0.652-0.131,1.281-0.273,1.913-0.387c2.167-0.391,4.354-0.581,6.552-0.684
					c0.107-0.004,0.21-0.03,0.319-0.044c0.598,0,1.201,0,1.803,0c0,0.588,0,1.175,0,1.765c1.606,0.132,3.141,0.257,4.71,0.387
					c0.089-0.399,0.187-0.818,0.273-1.238c0.109-0.53,0.109-0.548,0.657-0.441c1.106,0.218,2.216,0.419,3.306,0.697
					c1.924,0.494,3.776,1.186,5.547,2.085c0.095,0.047,0.185,0.104,0.301,0.17c-0.276,0.573-0.543,1.129-0.811,1.688
					c1.248,0.673,2.477,1.335,3.753,2.022c0.342-0.509,0.697-1.044,1.073-1.609c3.075,1.852,5.776,4.112,8.189,6.787
					c-0.38,0.401-0.749,0.79-1.11,1.17c0.954,1.208,1.899,2.409,2.87,3.635c0.479-0.293,0.997-0.612,1.588-0.973
					c2.054,2.697,3.474,5.705,4.665,8.876c-0.62,0.278-1.194,0.535-1.759,0.788c0.421,1.311,0.832,2.597,1.26,3.938
					c0.593-0.124,1.22-0.253,1.911-0.394c0.144,0.722,0.333,1.431,0.417,2.15c0.226,1.931,0.41,3.867,0.612,5.799
					c0.008,0.093,0.035,0.185,0.054,0.276c0,0.793,0,1.587,0,2.382c-0.541,0.004-1.081,0.002-1.62,0.026
					c-0.081,0.003-0.224,0.117-0.229,0.192c-0.145,1.454-0.27,2.909-0.404,4.415c0.534,0.116,1.115,0.243,1.765,0.387
					c-0.411,3.401-1.405,6.598-2.959,9.648c-0.691-0.28-1.299-0.525-1.883-0.763c-0.644,1.251-1.268,2.463-1.909,3.712
					c0.503,0.328,1.043,0.686,1.582,1.035c-0.523,1.346-5.117,7.038-6.672,8.27c-0.461-0.429-0.927-0.858-1.39-1.287
					c-1.195,0.953-2.384,1.901-3.604,2.876c0.305,0.508,0.621,1.041,0.937,1.571c-0.914,1.085-7.071,4.371-8.871,4.725
					c-0.259-0.61-0.523-1.221-0.778-1.823c-1.307,0.411-2.587,0.812-3.906,1.227c0.12,0.602,0.247,1.231,0.385,1.907
					c-3.487,0.771-6.989,1.075-10.611,1.012c0-0.296,0-0.579,0-0.859c0-0.278,0-0.552,0-0.828c-1.598-0.148-3.158-0.296-4.751-0.442
					c-0.1,0.575-0.203,1.164-0.314,1.809c-3.385-0.505-6.599-1.467-9.683-3.003c0.257-0.614,0.506-1.207,0.753-1.804
					c-1.221-0.631-2.429-1.255-3.66-1.892c-0.342,0.521-0.691,1.05-1.064,1.622c-3.03-1.887-5.698-4.195-8.254-6.705
					c0.431-0.461,0.844-0.905,1.256-1.346c-0.988-1.166-1.959-2.305-2.954-3.477c-0.504,0.299-1.034,0.616-1.562,0.927
					c-1.534-1.707-4.244-6.913-4.636-8.915c0.563-0.241,1.133-0.482,1.718-0.728c-0.395-1.301-0.788-2.589-1.197-3.935
					c-0.6,0.114-1.229,0.237-1.917,0.367c-0.125-0.682-0.293-1.344-0.367-2.016c-0.202-1.85-0.363-3.701-0.542-5.554
					c-0.009-0.118-0.033-0.236-0.048-0.352C3.887,43.101,3.887,42.212,3.887,41.323z M28.518,7.211
					c-2.697,1.156-5.214,2.522-7.579,4.225c0.353,0.542,0.679,1.039,1.002,1.534c-2.562,1.901-4.847,4.046-7.003,6.372
					c0.519,0.562,1.005,1.089,1.491,1.616c-1.891,2.618-3.688,5.264-5.066,8.181c-1.307-0.521-2.584-1.031-3.896-1.552
					c-1.146,2.669-1.973,5.384-2.463,8.228c0.631,0.15,1.209,0.29,1.792,0.428c-0.457,3.124-0.599,6.232-0.414,9.399
					c0.79,0,1.52,0,2.281,0c0.326,3.238,1.037,6.35,2.189,9.366c-1.301,0.546-2.546,1.069-3.802,1.598
					c0.945,2.78,2.354,5.257,3.999,7.634c0.564-0.338,1.085-0.647,1.603-0.954c1.897,2.531,3.984,4.82,6.363,6.892
					c0.554-0.532,1.073-1.038,1.585-1.53c2.584,1.984,5.344,3.598,8.212,5.085c-0.524,1.245-1.042,2.479-1.569,3.729
					c2.639,1.255,5.372,2.071,8.253,2.565c0.112-0.634,0.216-1.228,0.311-1.771c1.625,0.148,3.21,0.357,4.802,0.419
					c1.602,0.062,3.209-0.025,4.806-0.044c0-0.834,0-1.557,0-2.315c3.228-0.266,6.349-0.984,9.372-2.187
					c0.557,1.318,1.089,2.583,1.636,3.874c2.719-1.05,5.207-2.435,7.62-4.028c-0.35-0.585-0.678-1.14-1.01-1.705
					c2.61-1.785,4.973-3.803,7.012-6.316c-0.563-0.527-1.103-1.035-1.64-1.54c2.238-2.448,3.839-5.249,5.215-8.203
					c1.307,0.535,2.59,1.058,3.911,1.599c1.224-2.658,2.1-5.372,2.532-8.261c-0.644-0.141-1.248-0.273-1.857-0.409
					c0-0.069-0.004-0.115,0-0.164c0.172-1.392,0.395-2.782,0.507-4.18c0.13-1.628,0.104-3.265-0.142-4.891
					c-0.042-0.279-0.152-0.317-0.402-0.29c-0.617,0.071-1.237,0.113-1.893,0.169c-0.16-3.274-0.943-6.385-2.105-9.425
					c1.267-0.557,2.502-1.103,3.772-1.663c-1.069-2.697-2.315-5.252-3.974-7.625c-0.595,0.367-1.142,0.701-1.713,1.051
					c-0.843-1.398-1.813-2.646-2.884-3.817c-1.067-1.168-2.192-2.276-3.45-3.317c-0.544,0.57-1.066,1.116-1.589,1.663
					c-2.638-2.048-5.415-3.791-8.469-5.137c0.607-1.255,1.203-2.491,1.811-3.747c-0.156-0.079-0.269-0.146-0.388-0.201
					c-2.431-1.124-4.972-1.897-7.614-2.344c-0.227-0.037-0.3,0.037-0.342,0.24c-0.1,0.504-0.213,1.005-0.326,1.541
					c-0.142-0.02-0.258-0.037-0.371-0.052c-0.823-0.106-1.641-0.242-2.465-0.311c-2.027-0.169-4.057-0.169-6.087-0.019
					c-0.492,0.037-0.494,0.025-0.495,0.537c-0.002,0.585,0,1.172,0,1.778c-3.305,0.355-6.486,0.977-9.487,2.388
					C29.567,9.939,29.054,8.608,28.518,7.211z M68.957,70.3c2.262-2.342,4.337-4.765,6.082-7.492
					c-0.576-0.377-1.114-0.728-1.608-1.051c0.705-1.349,1.396-2.669,2.107-4.028c-0.586-0.241-1.078-0.442-1.582-0.65
					c-1.272,2.629-2.727,5.091-4.653,7.354c0.537,0.5,1.071,0.99,1.662,1.537c-1.044,1.146-2.041,2.243-3.055,3.356
					C68.243,69.636,68.583,69.95,68.957,70.3z M14.003,19.335c1.049-1.085,2.072-2.143,3.115-3.222
					c-0.338-0.323-0.67-0.641-1.024-0.977c-2.267,2.314-4.362,4.726-6.136,7.45c0.571,0.382,1.113,0.745,1.598,1.071
					c-0.718,1.349-1.413,2.653-2.121,3.983c0.596,0.238,1.092,0.434,1.59,0.634c1.297-2.584,2.875-4.944,4.521-7.268
					C15.047,20.461,14.559,19.934,14.003,19.335z M75.024,30.719c0.984,2.726,1.635,5.469,1.88,8.327
					c0.728-0.057,1.42-0.115,2.139-0.17c0.392,1.545,0.376,3.113,0.432,4.673c0.371,0,0.692-0.012,1.016,0.006
					c0.29,0.013,0.361-0.111,0.354-0.387c-0.062-2.811-0.289-5.607-0.811-8.375c-0.057-0.288-0.132-0.572-0.201-0.874
					c-0.673,0.143-1.291,0.272-1.873,0.393c-0.45-1.442-0.892-2.852-1.343-4.295C76.029,30.277,75.539,30.493,75.024,30.719z
					 M70.156,16.344c-2.222-2.402-4.67-4.457-7.433-6.168c-0.391,0.582-0.752,1.115-1.118,1.659
					c-0.082-0.053-0.13-0.088-0.181-0.116c-1.206-0.668-2.41-1.338-3.622-1.996c-0.085-0.043-0.295-0.031-0.324,0.023
					c-0.247,0.46-0.465,0.936-0.705,1.428c2.681,1.268,5.146,2.803,7.567,4.616c0.537-0.565,1.06-1.118,1.627-1.718
					c1.124,1.039,2.23,2.062,3.355,3.103C69.583,16.918,69.85,16.652,70.156,16.344z M30.461,10.378
					c0.065-0.005,0.105,0,0.136-0.012c2.516-1.081,5.161-1.643,7.863-1.969c0.395-0.048,0.474-0.201,0.467-0.537
					c-0.013-0.599-0.003-1.196-0.003-1.863c1.506-0.067,2.962-0.131,4.423-0.196c0-0.308-0.018-0.595,0.002-0.881
					c0.024-0.336-0.089-0.472-0.443-0.442c-2.151,0.182-4.308,0.326-6.457,0.535c-0.903,0.086-1.792,0.294-2.73,0.455
					c0.142,0.694,0.273,1.331,0.391,1.91c-1.453,0.458-2.854,0.899-4.284,1.352C30.062,9.343,30.261,9.862,30.461,10.378z
					 M20.566,69.49c-0.274,0.31-0.542,0.634-0.833,0.935c-0.657,0.672-0.678,0.686-1.392,0.047
					c-0.886-0.792-1.738-1.618-2.633-2.454c-0.293,0.309-0.601,0.634-0.936,0.984c2.328,2.265,4.754,4.34,7.482,6.101
					c0.376-0.569,0.736-1.112,1.062-1.606c1.345,0.707,2.643,1.393,3.977,2.095c0.241-0.575,0.442-1.054,0.648-1.544
					C25.39,72.688,22.958,71.229,20.566,69.49z M4.314,41.776c0.05,3.243,0.226,6.425,0.891,9.603
					c0.672-0.125,1.309-0.245,1.955-0.368c0.306,1.48,0.727,2.886,1.269,4.277c0.544-0.231,1.04-0.439,1.564-0.662
					c-0.979-2.706-1.603-5.473-1.94-8.335c-0.671,0-1.307-0.01-1.942,0.005c-0.243,0.003-0.343-0.07-0.351-0.319
					c-0.037-1.169-0.084-2.328-0.126-3.492c-0.008-0.235-0.001-0.47-0.001-0.708C5.18,41.776,4.779,41.776,4.314,41.776z
					 M54.413,74.992c-0.104,0.035-0.161,0.059-0.215,0.075c-2.421,0.895-4.914,1.483-7.476,1.788
					c-0.662,0.079-0.662,0.093-0.635,0.761c0.021,0.512,0.05,1.022,0.076,1.585c-1.568,0.081-3.086,0.158-4.634,0.237
					c0.021,0.433,0.039,0.844,0.062,1.281c3.27-0.042,6.454-0.271,9.602-0.957c-0.139-0.682-0.267-1.311-0.388-1.921
					c0.752-0.206,1.459-0.39,2.157-0.601c0.694-0.212,1.379-0.461,2.1-0.704C54.833,75.99,54.629,75.508,54.413,74.992z"/>
				<path stroke="#231815" stroke-width="0.5" stroke-miterlimit="10" d="M42.264,74.855C24.4,74.814,10.225,60.47,9.955,43.091
					C9.676,25.083,24.025,10.661,41.473,10.259c18.24-0.418,33.19,14.293,33.069,32.51C74.425,60.499,60.038,74.804,42.264,74.855z
					 M73.64,42.577c0.043-17.173-13.879-31.214-30.988-31.427c-17.347-0.216-31.774,13.749-31.806,31.337
					c-0.035,17.703,14.48,31.695,31.827,31.465C59.747,73.725,73.654,59.729,73.64,42.577z"/>
			</g>
			<g>
				<path d="M45.092,46.615c-0.105,0.028-0.208,0.088-0.298,0.072c-0.245-0.042-0.77-0.639-0.793-0.88
					c-0.004-0.057,0.006-0.144,0.041-0.158c0.054-0.027,0.159-0.037,0.192-0.004c0.273,0.261,0.538,0.537,0.804,0.81
					C45.057,46.479,45.059,46.521,45.092,46.615z"/>
				<path d="M44.994,44.562c-0.569,0.127-0.909-0.077-0.986-0.515c-0.012-0.071,0.014-0.203,0.055-0.216
					c0.075-0.031,0.207-0.025,0.259,0.023C44.542,44.06,44.741,44.292,44.994,44.562z"/>
				<g>
					<g>
						<path d="M56.047,47.671c0.107,0.009,0.192,0.004,0.271,0.023c0.071,0.023,0.181,0.066,0.188,0.114
							c0.009,0.064-0.049,0.155-0.105,0.203c-0.389,0.356-0.426,0.449-0.369,0.99c0.139,0.048,0.269,0.095,0.403,0.141
							c-0.062,0.146-0.095,0.318-0.193,0.433c-0.441,0.52-0.392,1.106-0.273,1.706c0.015,0.083,0.048,0.162,0.063,0.243
							c0.037,0.23-0.085,0.41-0.288,0.414c-0.113,0-0.284-0.186-0.331-0.319c-0.079-0.228-0.083-0.48-0.116-0.704
							c-0.297,0.186-0.56,0.378-0.848,0.514c-0.129,0.06-0.31,0.004-0.469,0c0.022-0.153-0.001-0.334,0.074-0.452
							c0.371-0.579,0.778-1.133,1.15-1.712c0.094-0.147,0.101-0.35,0.147-0.525c-0.031-0.027-0.062-0.054-0.092-0.081
							c-0.162,0.075-0.321,0.152-0.483,0.228c-0.141,0.065-0.278,0.164-0.425,0.176c-0.131,0.016-0.271-0.069-0.406-0.11
							c0.064-0.127,0.097-0.303,0.2-0.372c0.264-0.186,0.546-0.359,0.846-0.473c0.364-0.139,0.463-0.404,0.483-0.743
							c0.011-0.159-0.035-0.329,0.022-0.466c0.057-0.143,0.205-0.253,0.311-0.375c0.091,0.134,0.2,0.261,0.269,0.407
							c0.029,0.062-0.028,0.159-0.03,0.242C56.041,47.333,56.047,47.499,56.047,47.671z"/>
						<path d="M57.899,49.69c-0.158,0.026-0.318,0.056-0.448,0.083c0-0.234,0.025-0.437-0.005-0.632
							c-0.042-0.257,0.046-0.415,0.278-0.506c0.019,0.016,0.047,0.021,0.054,0.039c0.067,0.17,0.132,0.338,0.201,0.506
							c0.154-0.103,0.326-0.188,0.46-0.312c0.132-0.117,0.213-0.291,0.346-0.407c0.072-0.062,0.203-0.058,0.305-0.081
							c-0.035,0.081-0.054,0.174-0.106,0.243c-0.14,0.17-0.294,0.332-0.461,0.518c0.208,0.06,0.372,0.11,0.567,0.172
							c-0.307,0.122-0.55,0.218-0.792,0.314c0.011,0.043,0.02,0.081,0.029,0.124c0.166,0.036,0.332,0.075,0.531,0.117
							c-0.123,0.178-0.208,0.302-0.341,0.494c0.242,0.027,0.428,0.051,0.614,0.072c0.019,0.024,0.038,0.052,0.056,0.079
							c-0.104,0.073-0.204,0.212-0.308,0.216c-0.322,0.01-0.415,0.193-0.485,0.463c-0.115,0.435-0.243,0.502-0.604,0.357
							c0.027-0.166,0.053-0.336,0.076-0.477c-0.145-0.047-0.266-0.083-0.386-0.118c0.054-0.121,0.11-0.243,0.164-0.362
							c0.124-0.28,0.247-0.561,0.369-0.84C57.975,49.73,57.937,49.709,57.899,49.69z"/>
						<path d="M59.853,47.97c-1.04,0.304-2.018,0.583-2.97,0.861c0.036-0.145,0.036-0.145,0.966-0.573
							c-0.071-0.047-0.133-0.073-0.176-0.116c-0.041-0.036-0.064-0.093-0.112-0.164c-0.06,0.063-0.097,0.132-0.153,0.158
							c-0.098,0.049-0.206,0.075-0.312,0.089c-0.022,0.002-0.093-0.117-0.079-0.164c0.035-0.1,0.104-0.276,0.16-0.272
							c0.444,0.002,0.376-0.303,0.373-0.574c0-0.048-0.017-0.107,0.004-0.143c0.056-0.087,0.127-0.162,0.193-0.243
							c0.076,0.081,0.214,0.16,0.216,0.238c0.002,0.339-0.039,0.675-0.063,1.049c0.317-0.351,0.508-0.726,0.524-1.197
							c0.005-0.176,0.087-0.361,0.176-0.518c0.031-0.06,0.189-0.075,0.276-0.058c0.039,0.009,0.075,0.166,0.062,0.243
							c-0.054,0.247-0.133,0.488-0.123,0.773c0.134-0.084,0.261-0.206,0.406-0.234c0.126-0.021,0.272,0.065,0.409,0.101
							c-0.074,0.104-0.124,0.256-0.224,0.305c-0.247,0.118-0.516,0.187-0.774,0.282c-0.083,0.031-0.154,0.099-0.312,0.195
							C58.895,48.105,59.364,47.516,59.853,47.97z"/>
						<path d="M58.986,51.628c-0.149-0.099-0.255-0.17-0.359-0.243c0-0.028,0-0.06-0.002-0.095c0.107-0.019,0.225-0.075,0.318-0.048
							c0.182,0.056,0.36,0.137,0.515,0.243c0.096,0.063,0.213,0.203,0.204,0.293c-0.013,0.099-0.148,0.234-0.255,0.263
							c-0.284,0.071-0.579,0.091-0.871,0.136c-0.022-0.039-0.044-0.077-0.067-0.114C58.633,51.926,58.795,51.788,58.986,51.628z"/>
					</g>
					<g>
						<path d="M28.84,50.993c0.107-0.135,0.163-0.18,0.186-0.235c0.033-0.089,0.042-0.188,0.062-0.28
							c-0.114,0.006-0.24-0.014-0.34,0.029c-0.12,0.048-0.234,0.222-0.324,0.202c-0.24-0.052-0.47-0.168-0.696-0.271
							c-0.027-0.014-0.019-0.186-0.005-0.191c0.094-0.021,0.213-0.056,0.292-0.02c0.129,0.062,0.255,0.272,0.365,0.056
							c0.041-0.077-0.124-0.293-0.234-0.409c-0.089-0.091-0.235-0.129-0.357-0.192c0.012-0.047,0.025-0.091,0.037-0.136
							c0.295,0.057,0.591,0.106,0.944,0.172c-0.006,0.01,0.031-0.028,0.042-0.073c0.052-0.197,0.097-0.397,0.145-0.597
							c-0.189,0.029-0.392,0.023-0.566,0.097c-0.237,0.097-0.336,0.008-0.392-0.202c-0.12-0.44,0.06-0.902,0.43-1.168
							c0.097-0.069,0.164-0.183,0.205-0.313c-0.751,0.409-1.25,1.013-1.529,1.811c-0.141,0.411-0.318,0.807-0.511,1.198
							c-0.14,0.28-1.153,0.632-1.457,0.51c-0.316-0.121-0.433-0.38-0.413-0.722c0.017-0.298,0.052-0.518,0.417-0.599
							c0.695-0.148,0.891-0.593,0.642-1.328c-0.185,0.083-0.36,0.195-0.551,0.241c-0.122,0.021-0.292-0.023-0.392-0.104
							c-0.052-0.04-0.037-0.255,0.021-0.322c0.066-0.075,0.222-0.065,0.334-0.104c0.284-0.104,0.588-0.167,0.837-0.326
							c0.186-0.118,0.358-0.205,0.498-0.042c0.061,0.071-0.017,0.293-0.078,0.425c-0.11,0.235-0.284,0.443-0.371,0.687
							c-0.039,0.106,0.048,0.379,0.12,0.395c0.328,0.075,0.358,0.332,0.442,0.69c0.11-0.206,0.202-0.314,0.226-0.432
							c0.214-1.074,0.977-1.769,1.719-2.466c0.092-0.088,0.354-0.135,0.426-0.073c0.108,0.093,0.195,0.33,0.148,0.452
							c-0.092,0.23-0.298,0.408-0.434,0.624c-0.106,0.172-0.192,0.361-0.245,0.556c-0.012,0.041,0.15,0.155,0.249,0.191
							c0.191,0.069,0.492,0.053,0.565,0.176c0.081,0.141,0.004,0.419-0.073,0.604c-0.144,0.348-0.111,0.479,0.249,0.613
							c0.103,0.037,0.239,0.029,0.306,0.095c0.107,0.11,0.254,0.284,0.227,0.395c-0.029,0.123-0.218,0.251-0.361,0.295
							C29.425,50.964,29.18,50.958,28.84,50.993z M25.842,49.867c-0.019-0.034-0.041-0.071-0.061-0.105
							c-0.201,0.087-0.428,0.135-0.59,0.268c-0.1,0.083-0.161,0.302-0.127,0.431c0.029,0.106,0.221,0.241,0.339,0.241
							c0.244-0.006,0.496-0.069,0.727-0.156c0.104-0.04,0.166-0.188,0.247-0.289c-0.12,0.02-0.236,0.044-0.355,0.062
							c-0.107,0.016-0.214,0.027-0.322,0.041c0.006-0.112,0.002-0.221,0.025-0.327C25.738,49.972,25.802,49.924,25.842,49.867z"/>
						<path d="M26.187,46.288c-0.014-0.269-0.027-0.506-0.042-0.797c0.307,0.124,0.619,0.168,0.588,0.503
							C26.711,46.249,26.484,46.344,26.187,46.288z"/>
						<path d="M26.059,46.556c0.18,0.082,0.373,0.142,0.528,0.255c0.048,0.031,0.029,0.226-0.02,0.315
							c-0.102,0.188-0.248,0.22-0.371,0.002c-0.079-0.143-0.146-0.292-0.222-0.436C26.004,46.645,26.032,46.601,26.059,46.556z"/>
					</g>
					<g>
						<path d="M35.931,50.46c0,0.468-0.606,0.854-1.005,0.634c-0.07-0.039-0.151-0.186-0.206-0.257
							c0.062-0.041,0.11-0.014,0.18-0.027c0.238-0.033,0.476-0.123,0.465-0.593c-0.021-0.897-0.056-1.797-0.077-2.693
							c-0.006-0.261-0.112-0.647,0.279-0.662c0.32-0.017,0.181,0.088,0.23,0.583C35.772,48.385,35.931,49.972,35.931,50.46z"/>
						<path d="M32.297,47.931c0.104-0.195,0.421-0.332,0.689-0.442c0.094-0.041,0.195-0.031,0.289-0.054
							c0.109-0.022,0.211-0.043,0.3-0.032c0.054,0.004,0.111,0.027,0.156,0.039c0.05,0.016,0.123,0.041,0.164,0.064
							c0.17,0.1,0.226,0.243,0.317,0.579c0.198,0.728,0.044,1.453,0.03,2.186c0,0.098-0.059,0.206-0.118,0.295
							c-0.12,0.178-0.258,0.21-0.382-0.004c-0.088-0.154-0.17-0.314-0.26-0.48c0.405-0.12,0.376-0.506,0.415-0.809
							c0.049-0.411,0.024-0.838,0.004-1.257c-0.013-0.274-0.17-0.419-0.462-0.34c-0.218,0.063-0.433,0.139-0.649,0.205
							c-0.069,0.019-0.179,0.075-0.26,0.088C32.467,47.981,32.373,47.916,32.297,47.931z"/>
						<path d="M31.958,48.207c0.104,0.008,0.154-0.058,0.174,0.053c0.015,0.075,0.023,0.083,0.023,0.139
							c0,0.156,0.074,0.231,0.09,0.303c0.029,0.122,0.031,0.14,0.019,0.276c-0.004,0.054-0.024,0.146-0.031,0.199
							c-0.008,0.056,0.01,0.119,0,0.17c-0.01,0.054,0.01,0.208-0.026,0.251c-0.063,0.081-0.043,0.181-0.063,0.364
							c-0.004,0.055-0.035,0.144-0.075,0.172c-0.05,0.035-0.073,0.215-0.131,0.28c-0.069,0.083-0.103,0.117-0.203,0.158
							c-0.037,0.018-0.164,0.014-0.174-0.027c0.026-0.143,0.018-0.235,0.039-0.348c0.019-0.098,0.106-0.185,0.122-0.271
							c0.022-0.112,0.004-0.15,0.018-0.255c0.011-0.103,0.071-0.259,0.091-0.399c0.009-0.063,0.084-0.373,0.093-0.44
							c0.022-0.136,0.005-0.332,0.011-0.46C31.938,48.306,31.902,48.244,31.958,48.207z"/>
						<path d="M35.02,49.644c-0.422,0.132-0.442-0.933-0.31-1.168c0.024-0.044,0.111-0.099,0.127-0.089
							c0.071,0.049,0.179,0.116,0.183,0.184C35.038,48.904,35.02,49.217,35.02,49.644z"/>
						<path d="M33.649,49.045c-0.086-0.077-0.149-0.075-0.175-0.125c-0.077-0.152,0.09-0.28,0.115-0.521
							c0.015-0.141,0.058-0.305-0.034-0.403c-0.045-0.052-0.111-0.046-0.232-0.075c-0.038,0.139-0.029,0.295-0.087,0.443
							c-0.038,0.093-0.02,0.124-0.132,0.23c-0.021-0.025-0.086-0.025-0.094-0.049c-0.028-0.077,0.041-0.168-0.012-0.176
							c-0.069-0.015-0.237-0.04-0.312,0.002c-0.026,0.014-0.008,0.025-0.019,0.061c-0.016,0.052,0.041,0.198,0.019,0.293
							c-0.01,0.037-0.087,0.06-0.095,0.095c-0.025,0.129-0.112,0.081-0.138,0.17c-0.048,0.182-0.024,0.413-0.035,0.475
							c-0.028,0.146-0.028,0.47,0.047,0.496c0.105,0.035,0.218,0.049,0.346,0.006c0.042-0.016,0.112-0.052,0.148-0.069
							c0.048-0.023,0.062-0.079,0.099-0.121c0.041-0.049,0.102-0.097,0.15-0.132c0.052-0.038,0.097-0.143,0.216-0.16
							c0.058-0.01,0.102-0.031,0.142-0.071C33.644,49.329,33.696,49.088,33.649,49.045z M32.795,49.736l-0.093-0.027l-0.038-0.105
							l-0.033-0.045l0.041-0.235h0.113l0.014,0.259L32.795,49.736z M33.237,49.353h-0.171l0.021-0.433h0.15V49.353z"/>
					</g>
					<g>
						<path d="M50.434,50.881c-0.144,0.035-0.286,0.085-0.432,0.104c-0.094,0.014-0.226,0.027-0.282-0.025
							c-0.062-0.058-0.091-0.192-0.075-0.289c0.021-0.126,0.075-0.259,0.153-0.359c0.374-0.486,0.475-1.038,0.465-1.637
							c-0.002-0.099,0.164-0.272,0.271-0.292c0.329-0.052,0.671-0.03,1.003-0.067c0.208-0.027,0.419-0.095,0.605-0.182
							c0.075-0.038,0.134-0.199,0.123-0.293c-0.009-0.07-0.143-0.17-0.228-0.174c-0.391-0.027-0.784-0.066-1.134,0.205
							c-0.336,0.258-0.743,0.341-1.16,0.28c-0.15-0.021-0.353-0.108-0.405-0.226c-0.047-0.099,0.082-0.28,0.132-0.431
							c0.024,0.037,0.046,0.069,0.069,0.106c0.31-0.029,0.618-0.06,1.01-0.096c-0.162-0.248-0.271-0.389-0.35-0.545
							c-0.042-0.089-0.063-0.212-0.031-0.295c0.016-0.046,0.184-0.08,0.254-0.049c0.292,0.126,0.691,0.09,0.791,0.522
							c0.014,0.05,0.175,0.082,0.271,0.096c0.247,0.036,0.522,0,0.74,0.098c0.172,0.075,0.331,0.284,0.401,0.47
							c0.086,0.237-0.024,0.454-0.301,0.513c-0.336,0.075-0.674,0.146-1.015,0.193c-0.195,0.028-0.396,0.006-0.66,0.006
							c0.173,0.287,0.238,0.502-0.1,0.617c-0.029,0.012-0.029,0.274,0.037,0.361c0.144,0.193,0.077,0.263-0.083,0.397
							c-0.216,0.178-0.38,0.423-0.594,0.666c0.548,0.176,0.752,0.062,0.843-0.376c0.112-0.539,0.235-0.577,0.708-0.253
							c0.104,0.069,0.239,0.102,0.365,0.129c0.231,0.051,0.218,0.186,0.085,0.302c-0.151,0.129-0.336,0.297-0.515,0.307
							c-0.468,0.027-0.568,0.372-0.717,0.693c-0.056,0.117-0.099,0.249-0.184,0.345c-0.057,0.063-0.173,0.07-0.264,0.104
							c-0.02-0.104-0.083-0.228-0.048-0.311c0.077-0.182,0.203-0.348,0.308-0.516C50.471,50.946,50.452,50.912,50.434,50.881z"/>
						<path d="M51.458,51.055c0.266,0.083,0.472,0.132,0.664,0.213c0.071,0.028,0.16,0.141,0.152,0.2
							c-0.013,0.085-0.094,0.191-0.173,0.231c-0.341,0.164-0.557,0.031-0.594-0.345C51.502,51.288,51.486,51.217,51.458,51.055z"/>
					</g>
				</g>
				<g>
					<g>
						<path d="M43.004,48.768c-0.309-0.018-0.51,0.024-0.658-0.049c-0.149-0.067-0.243-0.247-0.361-0.382
							c0.129-0.053,0.257-0.145,0.388-0.148c0.693-0.023,1.392-0.023,2.087-0.031c0.096-0.002,0.201-0.021,0.286,0.016
							c0.096,0.036,0.176,0.123,0.262,0.188c-0.088,0.077-0.166,0.202-0.266,0.226c-0.231,0.05-0.476,0.05-0.713,0.073
							c-0.37,0.035-0.405,0.062-0.622,0.455c0.135,0.068,0.268,0.144,0.404,0.205c0.28,0.124,0.373,0.314,0.246,0.608
							c-0.237,0.536-0.124,0.714,0.454,0.809c0.146,0.025,0.274,0.17,0.409,0.257c-0.135,0.11-0.267,0.305-0.407,0.311
							c-0.683,0.035-1.367,0.025-2.05,0.021c-0.191-0.006-0.396-0.087-0.342-0.313c0.025-0.101,0.226-0.184,0.365-0.229
							c0.12-0.034,0.273,0.025,0.389-0.019c0.125-0.051,0.302-0.162,0.31-0.267c0.012-0.13-0.12-0.271-0.195-0.403
							c-0.013-0.025-0.062-0.029-0.094-0.047c-0.38-0.18-0.384-0.235-0.166-0.583C42.846,49.275,42.897,49.043,43.004,48.768z"/>
						<path d="M40.493,51.408c-0.019-0.278-0.06-0.556-0.057-0.828c0.005-0.769,0.015-1.541,0.055-2.303
							c0.009-0.161,0.146-0.313,0.223-0.472c0.075,0.163,0.219,0.328,0.216,0.488c-0.021,0.944-0.074,1.895-0.129,2.836
							c-0.006,0.103-0.091,0.197-0.139,0.294C40.604,51.418,40.548,51.412,40.493,51.408z"/>
						<path d="M41.053,50.387c0.107-0.176,0.205-0.492,0.326-0.5c0.292-0.025,0.281,0.282,0.31,0.504
							c0.026,0.201,0.064,0.405,0.041,0.606c-0.013,0.111-0.139,0.212-0.214,0.318c-0.106-0.095-0.263-0.168-0.307-0.284
							c-0.069-0.185-0.063-0.397-0.091-0.598C41.097,50.42,41.073,50.402,41.053,50.387z"/>
						<path d="M41.27,49.604c0-0.601-0.019-1.118,0.01-1.63c0.008-0.146,0.168-0.243,0.315-0.073
							c0.157,0.188,0.148,1.316-0.016,1.496C41.521,49.458,41.433,49.491,41.27,49.604z"/>
						<path d="M40.236,48.709c-0.026,0.251-0.026,0.435-0.07,0.606c-0.021,0.085-0.126,0.148-0.193,0.222
							c-0.06-0.071-0.162-0.139-0.17-0.214c-0.05-0.403-0.095-0.811-0.099-1.218c-0.001-0.12,0.143-0.24,0.218-0.357
							c0.081,0.106,0.208,0.203,0.236,0.316C40.216,48.296,40.22,48.539,40.236,48.709z"/>
						<path d="M39.732,50.655c0-0.18-0.016-0.359,0.006-0.537c0.01-0.077,0.1-0.141,0.154-0.212
							c0.064,0.056,0.193,0.201,0.197,0.263c0.021,0.366,0.02,0.643,0.008,1.008c-0.002,0.062-0.125,0.117-0.192,0.172
							c-0.059-0.075-0.154-0.144-0.168-0.227c-0.03-0.15-0.008-0.311-0.008-0.467C39.728,50.655,39.73,50.655,39.732,50.655z"/>
					</g>
					<g>
						<path d="M42.39,65.438c-12.54,0-22.776-10.222-22.809-22.668c-0.033-12.547,10.011-22.692,22.33-22.938
							c13.021-0.259,23.43,10.346,23.291,23.054C65.069,55.323,54.882,65.472,42.39,65.438z M22.57,33.402
							c-0.084,0.155-0.181,0.305-0.252,0.465c-1.421,3.275-2.026,6.691-1.785,10.256c0.197,2.94,0.913,5.747,2.29,8.346
							c3.569,6.733,9.122,10.747,16.687,11.878c3.484,0.518,6.902,0.13,10.216-1.063c9.15-3.287,14.992-12.022,14.554-21.728
							c-0.124-2.693-0.745-5.269-1.826-7.735c-0.037-0.084-0.094-0.16-0.166-0.278c-0.301,1.508-1.187,2.447-2.479,3.056
							c-0.133,0.063-0.28,0.189-0.331,0.32c-0.474,1.211-1.379,1.958-2.551,2.442c-0.133,0.055-0.278,0.176-0.341,0.302
							c-0.754,1.491-2.018,2.246-3.623,2.354c-1.471,0.096-2.954,0.024-4.434,0.037c-0.15,0.001-0.413,0.048-0.43,0.12
							c-0.035,0.15,0.03,0.346,0.107,0.493c0.151,0.293,0.34,0.567,0.557,0.926c-0.852,0-1.613,0-2.374,0c0,0.222,0,0.393,0,0.622
							c0.926,0,1.828,0,2.799,0c-1.434,1.366-2.091,2.971-2.044,4.863c0.047,1.905,0.875,3.453,2.317,4.818
							c-1.723,0-3.333,0-4.956,0c-0.039,0.583-0.21,1.054-0.598,1.44c-0.105,0.102-0.209,0.264-0.219,0.403
							c-0.152,2.075-0.282,4.145-0.432,6.22c-0.041,0.546-0.118,1.099-0.216,1.639c-0.058,0.324-0.295,0.45-0.637,0.45
							c-0.35,0.002-0.542-0.15-0.631-0.467c-0.041-0.138-0.076-0.28-0.086-0.421c-0.077-0.983-0.15-1.966-0.217-2.946
							c-0.106-1.486-0.206-2.973-0.313-4.459c-0.008-0.112-0.037-0.265-0.114-0.323c-0.492-0.388-0.672-0.915-0.723-1.552
							c-1.624,0-3.234,0-4.941,0c1.448-1.354,2.267-2.911,2.31-4.816c0.043-1.89-0.624-3.507-2.06-4.861
							c0.918,0,1.746-0.01,2.576,0.002c0.222,0.002,0.294-0.077,0.29-0.293c-0.004-0.208-0.022-0.347-0.286-0.339
							c-0.564,0.017-1.129,0.006-1.695,0.004c-0.122-0.002-0.243-0.018-0.415-0.028c0.214-0.355,0.396-0.651,0.571-0.948
							c0.229-0.392,0.142-0.55-0.303-0.551c-1.428-0.004-2.861,0.011-4.29-0.022c-0.458-0.009-0.939-0.085-1.366-0.243
							c-1.112-0.411-2.047-1.054-2.505-2.222c-0.035-0.087-0.169-0.153-0.27-0.193c-1.191-0.471-2.11-1.22-2.579-2.454
							c-0.044-0.122-0.183-0.239-0.307-0.298c-1.366-0.663-2.338-1.624-2.487-3.224c0.189-0.009,0.382-0.026,0.574-0.026
							c3.872-0.003,7.742-0.004,11.612,0c0.235,0,0.381-0.051,0.515-0.278c0.323-0.542,0.842-0.717,1.456-0.634
							c0.529,0.072,0.89,0.361,1.056,0.858c0.188,0.563,0.194,1.127-0.263,1.575c-0.207,0.205-0.18,0.396-0.106,0.617
							c0.409,1.244,1.29,2.136,2.141,2.97c0.437-0.278,0.819-0.547,1.227-0.765c0.206-0.107,0.332-0.181,0.366-0.446
							c0.086-0.68,0.72-1.158,1.407-1.129c0.623,0.027,1.081,0.512,1.158,1.21c0.01,0.091,0.06,0.215,0.131,0.258
							c0.465,0.285,0.94,0.551,1.46,0.853c0.798-0.76,1.595-1.613,2.057-2.729c0.058-0.142,0.106-0.301,0.104-0.45
							c-0.002-0.127-0.057-0.279-0.141-0.373c-0.429-0.475-0.463-1.019-0.268-1.584c0.173-0.505,0.535-0.81,1.084-0.873
							c0.619-0.074,1.124,0.109,1.451,0.651c0.113,0.191,0.227,0.269,0.448,0.267c3.956-0.014,7.909-0.021,11.863-0.031
							c0.09,0,0.178-0.019,0.263-0.031c0.002-0.052,0.012-0.079,0.002-0.099c-0.037-0.087-0.075-0.175-0.12-0.26
							c-1.193-2.402-2.745-4.546-4.741-6.341c-5.618-5.053-12.172-6.908-19.562-5.357c-6.056,1.272-10.7,4.7-14.001,9.927
							C23.292,31.883,22.958,32.659,22.57,33.402z M29.502,39.569c-0.023,0.032-0.046,0.065-0.07,0.099
							c0.144,0.169,0.264,0.363,0.431,0.499c0.72,0.585,1.55,0.926,2.477,0.939c1.586,0.024,3.172,0.006,4.759,0.008
							c0.427,0,0.567,0.135,0.56,0.558c-0.005,0.316-0.041,0.635-0.063,0.971c0.267,0,0.544,0,0.811,0
							c0.018-0.057,0.028-0.08,0.031-0.104c0.089-1.053,0.159-2.107,0.57-3.103c0.028-0.065-0.059-0.207-0.129-0.278
							c-0.277-0.281-0.598-0.523-0.852-0.823c-0.823-0.962-1.449-2.034-1.637-3.312c-0.046-0.312-0.105-0.625,0.295-0.821
							c0.125-0.061,0.205-0.355,0.183-0.527c-0.015-0.124-0.237-0.317-0.359-0.311c-0.17,0.007-0.391,0.135-0.484,0.281
							c-0.111,0.179-0.111,0.424-0.17,0.682c-3.942,0-7.911,0-11.894,0c0.229,0.73,1.292,1.531,2,1.533
							c2.426,0.001,4.855-0.002,7.283,0.003c0.132,0.001,0.331,0.016,0.385,0.099c0.182,0.275,0.309,0.583,0.494,0.954
							c-2.608,0-5.128,0-7.666,0c0.255,0.786,1.454,1.606,2.305,1.61c1.983,0.003,3.965,0,5.948,0.001
							c0.112,0.002,0.276,0.002,0.329,0.07c0.22,0.287,0.407,0.598,0.65,0.967C33.555,39.569,31.529,39.569,29.502,39.569z
							 M60.868,34.309c-4.013,0-7.987,0-11.951,0c-0.018-0.196-0.01-0.371-0.054-0.528c-0.068-0.245-0.227-0.464-0.502-0.428
							c-0.156,0.02-0.359,0.166-0.419,0.306c-0.108,0.262,0.05,0.467,0.278,0.635c0.104,0.076,0.208,0.228,0.211,0.352
							c0.032,0.78-0.255,1.48-0.601,2.158c-0.498,0.975-1.174,1.811-1.955,2.4c0.206,1.187,0.398,2.302,0.596,3.439
							c0.22,0,0.498,0,0.76,0c-0.031-0.312-0.074-0.595-0.079-0.877c-0.012-0.565,0.095-0.66,0.676-0.66
							c1.537-0.001,3.078,0.012,4.616-0.004c0.944-0.011,1.785-0.351,2.513-0.946c0.164-0.135,0.28-0.331,0.419-0.499
							c-0.019-0.031-0.039-0.06-0.057-0.088c-2.034,0-4.068,0-6.18,0c0.171-0.275,0.318-0.475,0.43-0.694
							c0.137-0.267,0.324-0.354,0.63-0.35c1.827,0.016,3.653-0.017,5.479,0.02c0.829,0.015,1.496-0.3,2.101-0.798
							c0.243-0.201,0.417-0.488,0.624-0.737c-0.025-0.041-0.051-0.077-0.076-0.117c-2.523,0-5.046,0-7.619,0
							c0.125-0.256,0.238-0.442,0.309-0.642c0.106-0.307,0.292-0.396,0.621-0.394c2.368,0.017,4.736,0.01,7.103,0.007
							C59.53,35.862,60.562,35.129,60.868,34.309z M43.419,44.813c-0.201,0.116-0.417,0.242-0.637,0.365
							c-0.21,0.112-0.428,0.216-0.639,0.328c-0.203,0.106-0.402,0.218-0.604,0.325c-0.027-0.043-0.056-0.085-0.085-0.128
							c0.869-0.471,1.442-1.201,1.85-2.073c-1.24,0-2.504,0-3.782,0c0,2.655,0,5.278,0,7.917c1.965,0,3.907,0,5.869,0
							c0-2.646,0-5.271,0-7.917c-0.628,0-1.233,0-1.923,0c0.176,0.356,0.269,0.714,0.492,0.952c0.288,0.312,0.679,0.527,1.018,0.788
							c0.1,0.075,0.177,0.178,0.264,0.265c-0.028,0.037-0.056,0.071-0.083,0.11C44.487,45.622,44.039,45.06,43.419,44.813z
							 M42.385,62.342c0.02,0.01,0.042,0.018,0.063,0.029c0.13-2.409,0.26-4.818,0.402-7.228c0.009-0.152,0.105-0.326,0.212-0.444
							c0.201-0.226,0.353-0.447,0.251-0.801c-0.481,0-0.959-0.004-1.44,0c-0.423,0-0.515,0.137-0.316,0.516
							c0.06,0.109,0.177,0.194,0.248,0.303c0.066,0.103,0.149,0.217,0.159,0.328c0.082,1.318,0.152,2.637,0.226,3.954
							C42.255,60.112,42.32,61.227,42.385,62.342z M39.543,41.323c1.91,0,3.821,0,5.73,0c0.041-0.5,0.031-0.513-0.43-0.513
							c-1.62,0-3.236,0-4.855,0C39.523,40.81,39.516,40.82,39.543,41.323z M39.454,42.188c-0.049,0.486-0.049,0.489,0.388,0.486
							c1.737-0.009,3.478-0.021,5.218-0.03c0.062,0,0.137,0.02,0.178-0.008c0.075-0.053,0.17-0.126,0.187-0.205
							c0.057-0.282-0.15-0.268-0.336-0.268c-1.789,0.001-3.578,0-5.366,0.001C39.637,42.166,39.556,42.177,39.454,42.188z
							 M39.886,39.954c1.685,0,3.35,0,5.033,0c-0.042-0.351-0.18-0.515-0.557-0.511c-1.296,0.021-2.594,0.021-3.891,0.001
							C40.117,39.441,39.931,39.555,39.886,39.954z M42.413,53.391c1.067,0,2.135,0.004,3.203-0.012
							c0.104,0,0.207-0.111,0.312-0.174c-0.104-0.048-0.206-0.139-0.308-0.139c-2.136-0.012-4.273-0.012-6.409,0
							c-0.102,0-0.207,0.089-0.309,0.137c0.101,0.063,0.205,0.176,0.307,0.176C40.274,53.395,41.345,53.391,42.413,53.391z
							 M43.915,38.638c-0.701-0.732-2.693-0.576-3.004,0C41.894,38.638,42.875,38.638,43.915,38.638z M38.85,52.211
							c0.06,0.174,0.065,0.342,0.143,0.383c0.095,0.052,0.282,0.044,0.363-0.02c0.069-0.056,0.042-0.228,0.058-0.363
							C39.224,52.211,39.084,52.211,38.85,52.211z M41.129,52.219c0.019,0.132-0.002,0.32,0.059,0.354
							c0.111,0.056,0.289,0.062,0.402,0.008c0.063-0.031,0.049-0.221,0.075-0.359C41.469,52.219,41.326,52.219,41.129,52.219z
							 M40.534,52.608c-0.007-0.15-0.011-0.264-0.016-0.378c-0.18,0-0.327,0-0.502,0c0.008,0.139,0.014,0.251,0.02,0.378
							C40.205,52.608,40.342,52.608,40.534,52.608z M43.779,52.6c-0.007-0.142-0.012-0.257-0.018-0.363c-0.178,0-0.326,0-0.467,0
							C43.196,52.691,43.463,52.64,43.779,52.6z M44.421,52.592c0.507,0.062,0.518,0.054,0.46-0.365
							c-0.051-0.006-0.108-0.02-0.165-0.02c-0.091,0-0.186,0.008-0.295,0.014C44.421,52.353,44.421,52.464,44.421,52.592z
							 M45.446,52.584c0.486,0.083,0.539,0.038,0.423-0.357c-0.139,0-0.278,0-0.423,0C45.446,52.361,45.446,52.476,45.446,52.584z
							 M42.205,52.58c0.483,0.093,0.535,0.046,0.423-0.355c-0.139,0-0.276,0-0.423,0C42.205,52.359,42.205,52.474,42.205,52.58z"/>
						<path d="M43.599,46.721c-0.587,0.293-1.029,0.838-1.716,0.832c-0.023-0.037-0.048-0.073-0.073-0.108
							c0.131-0.13,0.24-0.287,0.392-0.385c0.487-0.307,0.753-0.755,0.918-1.288c0.038-0.124,0.15-0.224,0.225-0.336
							c0.087,0.099,0.208,0.18,0.255,0.295c0.258,0.624,0.706,1.073,1.258,1.438c0.093,0.061,0.143,0.179,0.274,0.352
							C44.38,47.524,44.046,46.987,43.599,46.721z"/>
						<path d="M40.941,45.562c0,0.491,0.011,0.983-0.008,1.473c-0.005,0.118-0.117,0.228-0.18,0.342
							c-0.066-0.114-0.187-0.224-0.188-0.34c-0.019-0.984-0.021-1.965-0.006-2.948c0.001-0.113,0.134-0.221,0.207-0.334
							c0.064,0.113,0.176,0.221,0.182,0.334c0.021,0.492,0.008,0.984,0.008,1.475C40.95,45.562,40.946,45.562,40.941,45.562z"/>
						<path d="M41.601,43.818c0.017,0.268,0.028,0.537,0.042,0.762c0.248-0.245,0.533-0.461,0.804-0.641
							c0.077-0.052,0.191-0.05,0.29-0.075c0.004,0.112,0.041,0.234,0.006,0.328c-0.048,0.115-0.139,0.226-0.239,0.309
							c-0.357,0.282-0.724,0.555-1.106,0.844C41.201,44.731,41.275,44.041,41.601,43.818z"/>
						<path d="M41.339,45.813c0.458,0.468,0.396,1.383-0.068,1.539C41.177,46.846,41.125,46.362,41.339,45.813z"/>
						<path d="M42.737,45.861c-0.146,0.241-0.276,0.476-0.43,0.699c-0.035,0.052-0.181,0.094-0.214,0.062
							c-0.062-0.047-0.124-0.166-0.103-0.232c0.072-0.241,0.158-0.479,0.28-0.697c0.039-0.068,0.207-0.097,0.309-0.087
							C42.63,45.61,42.669,45.746,42.737,45.861z"/>
						<path d="M39.945,45.707c0.257,0.303,0.37,1.089,0.206,1.362c-0.042,0.067-0.15,0.126-0.228,0.126
							c-0.059,0.001-0.172-0.095-0.172-0.146c0-0.096-0.033-0.197,0.006-0.284c0.022-0.052,0.052-0.21,0.022-0.407
							c-0.024-0.159,0.012-0.31,0.024-0.469C39.805,45.832,39.882,45.784,39.945,45.707z"/>
						<path d="M39.961,43.759c0.178,0.31,0.263,0.511,0.283,0.761c0.011,0.129,0.015,0.3-0.02,0.443
							c-0.023,0.102-0.17,0.171-0.261,0.254c-0.199-0.111-0.199-0.217-0.207-0.33c-0.017-0.119,0.028-0.148,0.036-0.213
							c0.011-0.071-0.005-0.145,0-0.241c0.007-0.115-0.022-0.317-0.015-0.433C39.784,43.919,39.829,43.817,39.961,43.759z"/>
					</g>
				</g>
			</g>
			<g>
				<path d="M35.73,20.058c-1.131,0.107-1.905-0.708-2.852-1.192c-0.284,1.068-0.643,2.061-1.586,2.689
					c-0.036-0.017-0.069-0.033-0.104-0.048c0.068-0.166,0.122-0.338,0.207-0.495c0.263-0.51,0.559-1.006,0.799-1.527
					c0.211-0.456,0.255-0.949,0.12-1.443c-0.168-0.624-0.34-1.245-0.546-1.986c-0.484,0.403-0.894,0.765-1.325,1.095
					c-0.151,0.116-0.358,0.162-0.542,0.239c0.008-0.212-0.052-0.461,0.04-0.627c0.28-0.514,0.754-0.84,1.271-1.076
					c0.306-0.142,0.329-0.298,0.229-0.58c-0.089-0.248-0.112-0.52-0.11-0.801c0.442,0.188,0.48,0.652,0.724,0.963
					c0.4-0.067,0.797-0.157,1.197-0.19c0.259-0.02,0.528,0.026,0.782,0.088c0.12,0.03,0.216,0.166,0.394,0.309
					c-0.779,0.13-1.441,0.243-2.128,0.361c0.26,0.801,0.483,1.533,0.736,2.255c0.166,0.469,0.561,0.737,0.984,0.954
					c0.448,0.23,0.908,0.433,1.359,0.656c0.144,0.073,0.27,0.176,0.405,0.267C35.763,19.997,35.746,20.028,35.73,20.058z"/>
				<g>
					<path d="M18.41,52.6c-1.166,0.563-2.33,1.127-3.519,1.704c-0.154-0.307-0.297-0.589-0.456-0.907
						c0.575-0.284,1.129-0.562,1.685-0.836c0.959-0.467,1.924-0.923,2.876-1.407c0.276-0.141,0.388-0.099,0.5,0.189
						c0.153,0.388,0.361,0.753,0.558,1.146c-0.936,0.807-1.856,1.603-2.778,2.403c0.011,0.02,0.021,0.041,0.033,0.062
						c0.532-0.104,1.067-0.21,1.599-0.316c0.576-0.118,1.154-0.228,1.728-0.359c0.182-0.044,0.286-0.021,0.37,0.16
						c0.196,0.423,0.408,0.84,0.624,1.28c-1.627,0.795-3.241,1.583-4.888,2.386c-0.153-0.311-0.293-0.596-0.452-0.915
						c1.191-0.587,2.367-1.164,3.541-1.739c-0.008-0.022-0.017-0.048-0.026-0.071c-0.76,0.162-1.518,0.324-2.279,0.486
						c-0.469,0.099-0.94,0.191-1.406,0.306c-0.226,0.058-0.356,0.004-0.442-0.221c-0.083-0.226-0.202-0.436-0.319-0.678
						c1.037-0.876,2.07-1.743,3.105-2.615C18.444,52.638,18.425,52.616,18.41,52.6z"/>
					<path d="M72.426,44.391c-0.026,0.39-0.048,0.72-0.073,1.09c-0.692-0.05-1.347-0.102-2.002-0.137
						c-0.158-0.008-0.34,0.013-0.477,0.083c-0.822,0.422-1.635,0.858-2.452,1.293c-0.051,0.026-0.094,0.062-0.176,0.12
						c0.154,0.056,0.274,0.098,0.429,0.15c-0.125,0.51-0.249,1.004-0.38,1.536c0.67,0.177,1.315,0.349,1.959,0.517
						c0.709,0.189,1.414,0.383,2.125,0.553c0.221,0.054,0.276,0.143,0.211,0.349c-0.079,0.249-0.142,0.502-0.223,0.79
						c-1.455-0.376-2.879-0.749-4.352-1.129c-0.142,0.511-0.279,1.011-0.424,1.54c-0.298-0.079-0.573-0.148-0.881-0.231
						c0.253-0.977,0.516-1.921,0.741-2.871c0.162-0.688,0.265-1.386,0.415-2.074c0.027-0.127,0.145-0.268,0.259-0.328
						c0.635-0.326,1.281-0.639,1.98-0.98c-0.598-0.411-1.137-0.813-1.703-1.163c-0.282-0.176-0.363-0.375-0.313-0.681
						c0.041-0.245,0.053-0.494,0.082-0.815c0.523,0.384,1.002,0.732,1.48,1.088c0.317,0.233,0.657,0.448,0.947,0.718
						c0.391,0.359,0.843,0.462,1.347,0.477C71.422,44.302,71.899,44.35,72.426,44.391z"/>
					<path d="M59.729,60.189c0.737-0.813,1.424-1.631,2.177-2.382c0.516-0.518,1.189-0.498,1.778-0.073
						c0.606,0.44,0.808,1.108,0.539,1.779c-0.041,0.101-0.083,0.197-0.141,0.338c1.012-0.268,1.95,0.083,2.984,0.176
						c-0.284,0.336-0.509,0.64-0.78,0.897c-0.087,0.083-0.292,0.07-0.437,0.055c-0.55-0.055-1.1-0.106-1.646-0.188
						c-0.572-0.091-0.979,0.133-1.3,0.65c0.557,0.482,1.124,0.972,1.704,1.472c-0.243,0.281-0.47,0.542-0.726,0.834
						C62.503,62.563,61.141,61.396,59.729,60.189z M62.232,60.869c0.356-0.442,0.7-0.842,1.008-1.263
						c0.223-0.305,0.16-0.621-0.115-0.858c-0.29-0.251-0.603-0.276-0.87-0.004c-0.373,0.38-0.71,0.799-1.077,1.218
						C61.537,60.274,61.862,60.555,62.232,60.869z"/>
					<path d="M49.436,69.774c-0.235-1.118-0.469-2.237-0.71-3.388c0.352-0.069,0.66-0.132,0.996-0.201
						c0.382,1.794,0.751,3.537,1.124,5.29c-0.076,0.026-0.122,0.04-0.164,0.058c-0.631,0.259-1.098,0.119-1.542-0.442
						c-0.523-0.668-1.162-1.245-1.749-1.862c-0.129-0.138-0.247-0.286-0.373-0.425c-0.029,0.019-0.058,0.038-0.087,0.06
						c0.228,1.089,0.456,2.178,0.693,3.311c-0.339,0.071-0.649,0.142-0.99,0.217c-0.38-1.778-0.751-3.523-1.131-5.312
						c0.33-0.073,0.639-0.171,0.956-0.194c0.115-0.012,0.263,0.141,0.363,0.249c0.772,0.805,1.538,1.621,2.301,2.438
						c0.077,0.082,0.125,0.197,0.185,0.298C49.351,69.836,49.394,69.808,49.436,69.774z"/>
					<path d="M31.917,64.771c0.312,0.166,0.585,0.313,0.899,0.482c-0.854,1.589-1.7,3.17-2.57,4.788
						c-0.297-0.156-0.588-0.288-0.851-0.462c-0.084-0.058-0.124-0.224-0.13-0.343c-0.077-1.112-0.143-2.225-0.21-3.34
						c-0.009-0.116-0.021-0.23-0.114-0.381c-0.528,0.979-1.056,1.958-1.602,2.966c-0.303-0.16-0.585-0.31-0.9-0.478
						c0.861-1.602,1.708-3.181,2.571-4.787c0.293,0.152,0.57,0.272,0.812,0.438c0.094,0.063,0.14,0.241,0.149,0.368
						c0.064,1.079,0.116,2.158,0.173,3.233c0.01,0.18,0.032,0.355,0.127,0.555C30.815,66.812,31.357,65.808,31.917,64.771z"/>
					<path d="M36.143,69.907c-0.452-0.137-0.828-0.249-1.232-0.372c0.083-0.294,0.161-0.567,0.248-0.879
						c0.752,0.215,1.485,0.425,2.266,0.646c-0.197,0.686-0.382,1.346-0.585,2.006c-0.021,0.071-0.127,0.137-0.207,0.172
						c-1.108,0.482-2.732,0.185-3.568-0.646c-0.77-0.764-0.833-1.708-0.586-2.679c0.276-1.078,0.897-1.877,2.058-2.122
						c1.151-0.243,2.631,0.452,2.987,1.421c0.09,0.249,0.1,0.527,0.155,0.832c-0.373-0.025-0.669-0.035-0.96-0.081
						c-0.074-0.01-0.168-0.122-0.193-0.205c-0.318-1.06-1.656-1.436-2.396-0.629c-0.571,0.623-0.793,1.403-0.598,2.241
						c0.208,0.901,1.483,1.44,2.276,0.956C35.973,70.468,36.021,70.158,36.143,69.907z"/>
					<path d="M20.75,63.377c-0.285-0.354-0.54-0.643-0.754-0.956c-0.063-0.092-0.052-0.275-0.01-0.392
						c0.268-0.72,0.55-1.433,0.827-2.148c0.039-0.095,0.067-0.197,0.09-0.269c-1.116-0.591-1.751,0.261-2.494,0.822
						c-0.229-0.285-0.448-0.558-0.693-0.862c1.415-1.128,2.82-2.245,4.259-3.392c0.229,0.287,0.45,0.563,0.689,0.864
						c-0.608,0.486-1.193,0.958-1.853,1.484c0.435,0.037,0.786,0.069,1.134,0.097c0.609,0.049,1.221,0.077,1.829,0.145
						c0.156,0.02,0.33,0.118,0.438,0.236c0.25,0.268,0.467,0.569,0.746,0.92c-0.584-0.058-1.091-0.102-1.595-0.152
						c-0.322-0.028-0.65-0.036-0.966-0.102c-0.298-0.061-0.399,0.062-0.483,0.316c-0.337,1.038-0.691,2.069-1.039,3.102
						C20.847,63.168,20.812,63.24,20.75,63.377z"/>
					<path d="M56.169,63.095c1.066-0.842,2.101-1.662,3.166-2.502c0.185,0.234,0.367,0.466,0.573,0.725
						c-0.771,0.611-1.518,1.204-2.291,1.818c0.248,0.313,0.474,0.604,0.733,0.931c0.715-0.564,1.417-1.11,2.137-1.676
						c0.188,0.235,0.365,0.461,0.57,0.72c-0.708,0.563-1.4,1.116-2.124,1.691c0.305,0.386,0.598,0.755,0.908,1.146
						c0.794-0.623,1.564-1.229,2.366-1.863c0.189,0.234,0.371,0.452,0.587,0.713c-1.083,0.859-2.146,1.7-3.245,2.569
						C58.424,65.946,57.313,64.537,56.169,63.095z"/>
					<path d="M66.233,53.669c-0.141,0.273-0.258,0.536-0.409,0.777c-0.046,0.073-0.191,0.13-0.284,0.12
						c-0.65-0.065-1.326,0.728-1.138,1.354c0.076,0.259,0.353,0.382,0.605,0.228c0.222-0.135,0.415-0.32,0.606-0.5
						c0.246-0.228,0.467-0.484,0.712-0.711c0.673-0.621,1.35-0.704,2.065-0.266c0.632,0.384,0.904,1.119,0.672,1.919
						c-0.177,0.604-0.485,1.148-0.963,1.577c-0.551,0.498-1.407,0.589-2.047,0.216c0.007-0.04,0.009-0.089,0.026-0.133
						c0.118-0.265,0.239-0.521,0.365-0.8c0.193,0.025,0.38,0.077,0.566,0.069c0.647-0.028,1.254-0.894,1.083-1.519
						c-0.122-0.44-0.564-0.603-0.923-0.3c-0.346,0.292-0.65,0.636-0.977,0.954c-0.407,0.394-0.861,0.704-1.463,0.648
						c-0.952-0.093-1.541-0.973-1.218-1.955c0.172-0.518,0.488-1.018,0.843-1.438C64.835,53.355,65.575,53.294,66.233,53.669z"/>
					<path d="M26.302,61.029c0.264,0.223,0.539,0.435,0.791,0.67c0.06,0.055,0.091,0.199,0.064,0.278
						c-0.575,1.767-1.158,3.528-1.74,5.289c-0.002,0.012-0.017,0.016-0.067,0.062c-0.253-0.214-0.518-0.428-0.764-0.662
						c-0.048-0.048-0.049-0.177-0.03-0.258c0.039-0.164,0.106-0.317,0.162-0.476c0.206-0.585,0.205-0.585-0.259-0.971
						c-0.321-0.272-0.651-0.535-0.964-0.811c-0.156-0.142-0.298-0.186-0.471-0.045c-0.038,0.031-0.082,0.051-0.124,0.073
						c-0.861,0.512-0.942,0.5-1.639-0.33C22.938,62.91,24.606,61.976,26.302,61.029z M25.898,62.518
						c-0.019-0.021-0.042-0.04-0.062-0.062c-0.56,0.33-1.12,0.66-1.716,1.012c0.392,0.326,0.735,0.612,1.124,0.938
						C25.471,63.744,25.684,63.13,25.898,62.518z"/>
					<path d="M12.746,46.896c1.359,0.178,2.639,0.349,3.925,0.518c0.511,0.064,1.022,0.141,1.535,0.193
						c0.227,0.021,0.332,0.118,0.383,0.34c0.196,0.869,0.205,0.867-0.541,1.392c-1.245,0.878-2.492,1.753-3.741,2.627
						c-0.085,0.065-0.178,0.118-0.311,0.205c-0.086-0.357-0.171-0.676-0.236-1.002c-0.013-0.062,0.044-0.145,0.081-0.213
						c0.015-0.028,0.055-0.05,0.087-0.062c0.835-0.33,0.905-0.894,0.657-1.7c-0.299-0.968-0.229-0.993-1.231-1.104
						c-0.243-0.027-0.392-0.104-0.428-0.371C12.893,47.458,12.816,47.207,12.746,46.896z M17.303,48.598
						c-0.008-0.025-0.016-0.055-0.024-0.081c-0.645-0.07-1.291-0.14-1.979-0.215c0.12,0.5,0.223,0.937,0.34,1.425
						C16.226,49.327,16.764,48.964,17.303,48.598z"/>
					<path d="M40.527,67.162c0.371,0,0.692,0,1.089,0c0,0.188,0,0.373,0,0.561c0.006,1.006-0.002,2.017,0.03,3.026
						c0.02,0.699,0.423,1.033,1.123,1.014c0.625-0.02,0.936-0.299,0.948-0.931c0.02-1.069,0.006-2.137,0.006-3.206
						c0-0.143,0-0.284,0-0.456c0.373,0,0.713,0,1.117,0c0,0.481,0.007,0.972,0,1.458c-0.011,0.852,0,1.706-0.057,2.554
						c-0.051,0.765-0.509,1.29-1.266,1.411c-0.535,0.081-1.103,0.079-1.64,0.004c-0.717-0.103-1.218-0.648-1.27-1.374
						c-0.071-0.979-0.061-1.968-0.081-2.954C40.521,67.913,40.527,67.557,40.527,67.162z"/>
					<path d="M56.085,63.213c0.271,1.865,0.536,3.672,0.798,5.477c0.002,0.012,0.002,0.023,0.004,0.035
						c0.061,0.257-0.152,0.313-0.308,0.36c-0.298,0.091-0.564,0.543-0.879,0.259c-1.363-1.229-2.69-2.498-4.073-3.793
						c0.33-0.176,0.625-0.354,0.934-0.486c0.077-0.033,0.24,0.05,0.319,0.125c0.883,0.834,1.754,1.674,2.632,2.512
						c0.042,0.039,0.088,0.075,0.222,0.195c-0.091-0.561-0.162-1.023-0.238-1.483c-0.131-0.791-0.256-1.586-0.4-2.376
						c-0.042-0.229,0.022-0.352,0.238-0.438C55.577,63.497,55.803,63.359,56.085,63.213z"/>
					<path d="M18.197,46.429c-0.326,0.029-0.585,0.054-0.899,0.084c-0.042-0.527-0.087-1.035-0.132-1.602
						c-1.491,0.098-2.966,0.191-4.488,0.286c-0.026-0.369-0.051-0.707-0.077-1.087c0.503-0.039,0.966-0.075,1.43-0.104
						c0.897-0.058,1.795-0.122,2.696-0.16c0.298-0.014,0.398-0.114,0.362-0.411c-0.045-0.391-0.056-0.786-0.086-1.225
						c0.308-0.021,0.587-0.042,0.915-0.063C18.01,43.578,18.103,44.983,18.197,46.429z"/>
					<path d="M53.309,70.589c-0.35,0.13-0.671,0.251-1.035,0.389c-0.622-1.703-1.238-3.389-1.867-5.108
						c0.348-0.131,0.678-0.253,1.038-0.39C52.067,67.189,52.682,68.875,53.309,70.589z"/>
					<path d="M65.101,52.227c0.146-0.363,0.275-0.682,0.412-1.027c1.683,0.676,3.349,1.34,5.048,2.018
						c-0.137,0.352-0.263,0.672-0.405,1.027C68.47,53.57,66.808,52.91,65.101,52.227z"/>
				</g>
				<g>
					<path d="M20.825,30.047c0-0.459,0-0.92,0-1.381c0.022-0.022,0.042-0.044,0.063-0.065c0.126,0.174,0.328,0.336,0.362,0.523
						c0.052,0.32,0.041,0.666-0.02,0.986c-0.083,0.434-0.007,0.579,0.45,0.614c0.118,0.01,0.235,0.001,0.355,0.001
						c0.021,0.033,0.042,0.063,0.062,0.096c-0.085,0.073-0.168,0.208-0.259,0.212c-0.221,0.006-0.466,0.002-0.658-0.089
						c-0.224-0.106-0.326-0.057-0.479,0.107c-0.494,0.533-1.214,0.675-1.707,0.365c0.272-0.107,0.56-0.187,0.807-0.331
						c0.25-0.149,0.461-0.366,0.708-0.567c-0.166-0.181-0.292-0.317-0.387-0.42c-0.236,0.199-0.427,0.437-0.675,0.548
						c-0.555,0.255-1.029-0.096-0.921-0.693c0.063-0.365,0.211-0.74,0.417-1.045c0.211-0.318,0.655-0.354,0.975-0.166
						c0.324,0.19,0.399,0.481,0.31,0.837c-0.107,0.415,0.338,0.293,0.455,0.5C20.73,30.068,20.778,30.058,20.825,30.047z
						 M19.91,29.387c-0.087-0.152-0.144-0.341-0.27-0.441c-0.058-0.043-0.322,0.059-0.378,0.159c-0.162,0.286-0.303,0.595-0.38,0.91
						c-0.075,0.308,0.138,0.447,0.429,0.323C19.715,30.167,19.855,29.837,19.91,29.387z"/>
					<path d="M22.694,28.898c-0.165-0.016-0.344,0.005-0.488-0.056c-0.497-0.208-0.979-0.45-1.47-0.671
						c-0.897-0.409-1.43-0.269-2.038,0.513c-0.344,0.446-0.559,0.94-0.65,1.499c-0.066,0.411-0.006,0.79,0.292,1.065
						c0.367,0.335,0.778,0.624,1.18,0.919c0.301,0.221,0.615,0.42,0.922,0.626c-0.027,0.058-0.054,0.118-0.081,0.176
						c-0.189-0.048-0.394-0.065-0.563-0.153c-0.373-0.195-0.72-0.434-1.087-0.634c-1.159-0.629-1.175-1.828-0.782-2.712
						c0.216-0.485,0.552-0.926,0.867-1.363c0.38-0.527,0.959-0.556,1.533-0.477c0.826,0.112,1.539,0.519,2.232,0.955
						c0.071,0.044,0.111,0.138,0.167,0.208C22.719,28.83,22.707,28.865,22.694,28.898z"/>
					<path d="M18.676,27.935c-0.077-0.276-0.16-0.562-0.241-0.849c-0.046,0-0.091,0.002-0.137,0.002
						c-0.122,0.166-0.245,0.332-0.367,0.496c-0.029-0.008-0.057-0.016-0.085-0.021c0.015-0.098,0.019-0.201,0.044-0.294
						c0.154-0.524,0.157-0.524-0.421-0.729c-0.145,0.187-0.294,0.382-0.473,0.614c-0.041-0.097-0.102-0.172-0.083-0.207
						c0.176-0.35,0.305-0.695-0.133-1.104c0.233,0,0.349-0.035,0.421,0.003c0.512,0.284,1.039,0.549,1.514,0.887
						C19.176,27.059,19.126,27.58,18.676,27.935z"/>
					<path d="M16.021,28.786c0.049,0.447-0.696,0.98,0.252,1.211c0.172-0.195,0.358-0.404,0.542-0.614
						c0.026,0.014,0.052,0.028,0.075,0.041c-0.086,0.253-0.175,0.504-0.265,0.763c0.369,0.453,0.535-0.046,0.772-0.207
						c0.037,0.02,0.069,0.042,0.104,0.062c-0.1,0.23-0.143,0.535-0.318,0.669c-0.13,0.1-0.455,0.037-0.651-0.052
						c-0.553-0.249-1.084-0.546-1.617-0.838c-0.034-0.02-0.004-0.154-0.002-0.235c0.547,0.069,0.702-0.392,0.96-0.71
						C15.903,28.842,15.95,28.827,16.021,28.786z"/>
					<path d="M17.408,27.676c0.116,0.182,0.232,0.36,0.361,0.558c0.154-0.095,0.312-0.188,0.468-0.286
						c0.026,0.02,0.052,0.041,0.077,0.062c-0.104,0.159-0.176,0.356-0.317,0.467c-0.203,0.158-0.272,0.33-0.274,0.577
						c0,0.151-0.087,0.301-0.136,0.45c-0.037-0.001-0.07-0.001-0.109-0.003c-0.041-0.176-0.025-0.418-0.135-0.509
						c-0.104-0.088-0.339-0.021-0.576-0.098c0.179-0.15,0.429-0.269,0.516-0.461c0.09-0.197,0.021-0.468,0.021-0.705
						C17.336,27.712,17.372,27.696,17.408,27.676z"/>
					<path d="M16.559,26.962c0.095,0.197,0.189,0.394,0.303,0.633c0.178-0.112,0.352-0.222,0.525-0.332
						c-0.339,0.438-0.619,0.909-0.703,1.488c-0.048-0.017-0.099-0.032-0.147-0.046c-0.035-0.192-0.071-0.383-0.112-0.598
						c-0.148,0.069-0.277,0.127-0.506,0.237c0.104-0.21,0.136-0.403,0.237-0.452c0.364-0.172,0.301-0.468,0.284-0.764
						c-0.001-0.042,0.009-0.087,0.017-0.131C16.491,26.985,16.525,26.973,16.559,26.962z"/>
				</g>
				<g>
					<path d="M62.924,30.172c0.405,0.108,0.74,0.183,1.065,0.284c0.464,0.143,0.902,0.158,1.348-0.095
						c0.29-0.16,0.62-0.252,0.938-0.352c0.109-0.036,0.238-0.006,0.356-0.006c0.014,0.039,0.028,0.08,0.042,0.118
						c-0.156,0.083-0.301,0.197-0.467,0.245c-0.649,0.193-1.02,0.635-1.187,1.276c-0.089,0.346-0.186,0.691-0.289,1.037
						c-0.036,0.12-0.092,0.234-0.171,0.436c-0.259-0.434-0.106-0.793-0.048-1.136c0.058-0.35,0.168-0.689,0.257-1.037
						C63.348,30.781,63.188,30.723,62.924,30.172z"/>
					<path d="M69.332,28.452c-0.533,0.437-1.094,0.73-1.407,1.194c-0.315,0.464-0.384,1.097-0.564,1.664
						c-0.249-0.608,0.018-1.254,0.023-1.921c-0.497,0.057-0.977,0.05-1.284-0.479c0.239,0.036,0.479,0.064,0.716,0.111
						c0.386,0.075,0.749,0.066,1.112-0.131c0.303-0.166,0.638-0.278,0.964-0.394C69.013,28.452,69.152,28.466,69.332,28.452z"/>
					<path d="M65.795,28.296c-0.708,0.609-1.79,0.546-2.352,1.396c-0.035-0.024-0.067-0.05-0.1-0.076
						c0.102-0.182,0.165-0.405,0.311-0.537C64.258,28.543,64.985,28.312,65.795,28.296z"/>
					<path d="M62.623,28.459c0.175-0.667,1.662-1.527,2.548-1.455C64.353,27.609,63.283,27.674,62.623,28.459z"/>
					<path d="M65.638,32.105c-0.188-0.555,0.53-1.305,1.269-1.193C66.467,31.327,66.042,31.725,65.638,32.105z"/>
					<path d="M68.202,27.023c-0.016,0.606-0.9,1.14-1.518,0.825C67.203,27.568,67.703,27.295,68.202,27.023z"/>
					<path d="M67.46,25.92c-0.055,0.589-0.922,1.011-1.641,0.687C66.397,26.365,66.941,26.138,67.46,25.92z"/>
					<path d="M68.679,27.773c-0.096,0.587-1.02,0.959-1.645,0.577C67.607,28.147,68.153,27.958,68.679,27.773z"/>
					<path d="M64.185,29.73c0.638-0.102,1.199-0.196,1.74-0.284c-0.025,0.198-0.177,0.353-0.575,0.477
						C64.969,30.045,64.59,30.065,64.185,29.73z"/>
					<path d="M68.295,30.549c-0.104-0.38,0.091-0.664,0.319-0.92c0.232-0.264,0.517-0.439,1.009-0.344
						c-0.295,0.238-0.537,0.404-0.743,0.602C68.673,30.084,68.5,30.313,68.295,30.549z"/>
					<path d="M62.521,29.457c0.102-0.201,0.173-0.425,0.314-0.592c0.593-0.706,1.362-1.153,2.259-1.308
						c1.085-0.185,2.108-0.473,2.973-1.226c-0.038,0.076-0.062,0.162-0.115,0.228c-0.583,0.759-1.312,1.245-2.307,1.271
						c-1.038,0.027-1.897,0.465-2.607,1.209c-0.146,0.152-0.282,0.313-0.423,0.472C62.584,29.492,62.554,29.474,62.521,29.457z"/>
				</g>
				<g>
					<path d="M55.787,17.021c-0.205-0.037-0.409-0.068-0.61-0.112c-0.21-0.042-0.346-0.015-0.439,0.225
						c-0.291,0.746-0.619,1.478-0.916,2.222c-0.099,0.248-0.01,0.439,0.259,0.539c0.272,0.101,0.447,0.298,0.535,0.68
						c-0.215-0.052-0.388-0.065-0.534-0.135c-0.567-0.276-1.131-0.563-1.691-0.859c-0.093-0.048-0.156-0.149-0.233-0.227
						c0.102-0.04,0.207-0.117,0.308-0.114c0.978,0.021,0.98,0.025,1.333-0.883c0.186-0.48,0.366-0.961,0.552-1.442
						c0.069-0.179,0.073-0.301-0.145-0.397c-0.11-0.048-0.162-0.222-0.239-0.338c0.129-0.012,0.276-0.064,0.39-0.023
						c0.403,0.149,0.797,0.319,1.185,0.502c0.116,0.056,0.199,0.178,0.295,0.268C55.82,16.958,55.803,16.989,55.787,17.021z"/>
					<path d="M50.882,20.263c-0.309-0.28-0.301-0.616-0.3-0.922c0.005-0.876,0.23-1.708,0.8-2.375c0.695-0.815,1.365-1.63,1.649-2.7
						c0.033,0.008,0.064,0.016,0.097,0.022c-0.016,0.192-0.024,0.385-0.051,0.578c-0.089,0.62-0.28,1.221-0.743,1.643
						c-0.891,0.81-1.194,1.852-1.35,2.977C50.951,19.722,50.921,19.96,50.882,20.263z"/>
					<path d="M51.12,16.246c-0.411,1.098-0.821,2.196-1.256,3.361c-0.038-0.276-0.116-0.529-0.1-0.778
						c0.069-1.036,0.612-1.854,1.218-2.637C51.029,16.209,51.074,16.229,51.12,16.246z"/>
					<path d="M52.51,17.163c-0.29,1.075-0.569,2.113-0.85,3.152C51.363,19.444,51.71,17.668,52.51,17.163z"/>
					<path d="M52.213,14.067c0.264,0.622-0.229,1.608-0.957,1.755C51.586,15.217,51.9,14.64,52.213,14.067z"/>
					<path d="M53.756,14.638c0.38,0.511-0.171,1.782-0.973,2.017C53.121,15.957,53.44,15.291,53.756,14.638z"/>
				</g>
			</g>
		</g>
	</g>
</g>
</svg>
